<?xml version="1.0" encoding="UTF-8" standalone="no"?>
<!-- Creator: CorelDRAW X8 -->

<svg
   xmlns:dc="http://purl.org/dc/elements/1.1/"
   xmlns:cc="http://creativecommons.org/ns#"
   xmlns:rdf="http://www.w3.org/1999/02/22-rdf-syntax-ns#"
   xmlns:svg="http://www.w3.org/2000/svg"
   xmlns="http://www.w3.org/2000/svg"
   xmlns:sodipodi="http://sodipodi.sourceforge.net/DTD/sodipodi-0.dtd"
   xmlns:inkscape="http://www.inkscape.org/namespaces/inkscape"
   xml:space="preserve"
   width="719.99994"
   height="1110"
   version="1.1"
   style="clip-rule:evenodd;fill-rule:evenodd;image-rendering:optimizeQuality;shape-rendering:geometricPrecision;text-rendering:geometricPrecision"
   viewBox="0 0 47835.615 73747.329"
   id="svg2"
   inkscape:version="0.91 r13725"
   sodipodi:docname="imagotipo-vertical-2.svg"><metadata
     id="metadata43"><rdf:RDF><cc:Work
         rdf:about=""><dc:format>image/svg+xml</dc:format><dc:type
           rdf:resource="http://purl.org/dc/dcmitype/StillImage" /><dc:title></dc:title></cc:Work></rdf:RDF></metadata><sodipodi:namedview
     pagecolor="#ffffff"
     bordercolor="#666666"
     borderopacity="1"
     objecttolerance="10"
     gridtolerance="10"
     guidetolerance="10"
     inkscape:pageopacity="0"
     inkscape:pageshadow="2"
     inkscape:window-width="1366"
     inkscape:window-height="680"
     id="namedview41"
     showgrid="true"
     showguides="true"
     units="px"
     fit-margin-top="0"
     fit-margin-left="0"
     fit-margin-right="0"
     fit-margin-bottom="0"
     inkscape:zoom="0.35355339"
     inkscape:cx="212.73926"
     inkscape:cy="521.21533"
     inkscape:window-x="0"
     inkscape:window-y="27"
     inkscape:window-maximized="1"
     inkscape:current-layer="svg2"><inkscape:grid
       type="xygrid"
       id="grid4251"
       originx="-24746.286"
       originy="-133856.34" /></sodipodi:namedview><defs
     id="defs4"><style
       type="text/css"
       id="style29"><![CDATA[
    @font-face { font-family:"OCR-A BT";font-variant:normal;font-style:normal;font-weight:normal;src:url("#FontID0") format(svg)}
    .str0 {stroke:black;stroke-width:186.843}
    .fil1 {fill:none}
    .fil0 {fill:black}
    .fnt0 {font-weight:normal;font-size:953.446px;font-family:'OCR-A BT'}
   ]]></style></defs><g
     style="font-weight:normal;font-size:745.54962158px;font-family:'OCR-A BT';fill:#000000"
     id="text33"
     transform="translate(-24746.538,198702.68)" /><g
     id="g4923"
     inkscape:export-xdpi="90"
     inkscape:export-ydpi="90"
     transform="translate(5876.1927,57137.568)"><path
       d="m 862.08479,861.154 0,1311.758 2085.93471,0 q 175.4993,0 300.856,-135.181 130.3709,-135.181 130.3709,-305.409 l 0,-440.591 q 0,-170.228 -130.3709,-300.402 -130.3709,-130.175 -300.856,-130.175 l -2085.93471,0 z M -0.36901561,0 2948.0195,0 q 531.5122,0 917.6107,380.51 386.0987,380.51 386.0987,911.221 l 0,440.591 q 0,535.717 -381.0843,921.234 -381.0844,380.51 -922.6251,380.51 l -461.3125,0 1679.7792,2923.918 q 45.1284,75.101 65.1855,135.181 20.0572,60.081 20.0572,110.148 0,180.242 -125.3567,305.409 -125.3568,125.168 -305.8704,125.168 -125.3565,0 -230.6562,-65.087 -105.2995,-65.087 -170.485,-180.242 l -1940.5211,-3354.495 -616.75471,0 0,3129.193 q 0,215.289 -120.34239,345.463 -120.3424,135.181 -310.88451,135.181 -190.54212,0 -310.88451,-135.181 Q -0.36901561,6373.541 -0.36901561,6163.259 l 0,-6163.259 z"
       style="font-weight:normal;font-size:5126.87060547px;font-family:'OCR-A BT';clip-rule:evenodd;fill:#000000;fill-rule:evenodd;image-rendering:optimizeQuality;shape-rendering:geometricPrecision;text-rendering:geometricPrecision"
       id="path4547"
       inkscape:connector-curvature="0" /><path
       d="m 5314.7534,0 3770.7283,0 q 215.614,0 345.9845,120.161 135.3851,120.161 135.3851,310.416 0,185.249 -135.3851,310.416 -135.385,120.161 -345.9845,120.161 l -2908.2744,0 0,2027.717 1223.4813,0 q 210.5992,0 340.9701,120.161 130.371,120.162 130.371,310.416 0,190.255 -130.371,310.416 -130.3709,120.162 -340.9701,120.162 l -1223.4813,0 0,2032.724 2908.2744,0 q 215.614,0 345.9845,120.16 135.3851,120.161 135.3851,310.416 0,190.255 -135.3851,310.416 -135.385,120.161 -345.9845,120.161 l -3770.7283,0 0,-6643.903 z"
       style="font-weight:normal;font-size:5126.87060547px;font-family:'OCR-A BT';clip-rule:evenodd;fill:#000000;fill-rule:evenodd;image-rendering:optimizeQuality;shape-rendering:geometricPrecision;text-rendering:geometricPrecision"
       id="path4549"
       inkscape:connector-curvature="0" /><path
       d="m 12876.267,6643.903 q -401.141,0 -696.983,-195.261 -290.827,-195.262 -501.427,-615.825 l -892.539,-1772.375 q -80.228,-155.208 -120.342,-335.45 -35.1,-180.242 -35.1,-390.523 0,-220.296 35.1,-410.551 40.114,-190.255 120.342,-340.456 L 11677.857,811.087 Q 11878.429,395.53 12174.27,200.269 12470.111,0 12876.267,0 l 1524.337,0 q 215.613,0 345.985,120.161 135.385,120.161 135.385,310.416 0,185.249 -135.385,310.416 -135.386,120.161 -345.985,120.161 l -1524.337,0 q -125.357,0 -235.67,70.094 -110.314,70.094 -175.499,195.262 l -882.511,1787.395 q -40.115,90.121 -60.172,190.255 -20.057,100.134 -20.057,215.288 0,120.162 20.057,220.296 20.057,100.134 60.172,190.255 l 882.511,1777.382 q 65.185,125.167 175.499,200.268 110.313,75.101 235.67,75.101 l 1524.337,0 q 215.613,0 345.985,120.16 135.385,120.161 135.385,310.416 0,190.255 -135.385,310.416 -135.386,120.161 -345.985,120.161 l -1524.337,0 z"
       style="font-weight:normal;font-size:5126.87060547px;font-family:'OCR-A BT';clip-rule:evenodd;fill:#000000;fill-rule:evenodd;image-rendering:optimizeQuality;shape-rendering:geometricPrecision;text-rendering:geometricPrecision"
       id="path4551"
       inkscape:connector-curvature="0" /><path
       d="m 16807.452,480.644 0,4871.529 q 0,180.241 125.357,305.409 130.37,125.168 305.869,125.168 l 1654.707,0 q 170.485,0 305.871,-130.175 135.386,-130.174 135.386,-300.402 l 0,-4871.529 q 0,-220.295 115.328,-350.469 Q 19570.311,0 19765.868,0 q 185.528,0 305.871,135.181 125.357,135.182 125.357,345.463 l 0,4871.529 q 0,530.711 -381.084,911.221 -381.085,380.509 -912.598,380.509 l -1654.707,0 q -541.541,0 -922.625,-380.509 -381.084,-375.504 -381.084,-911.221 l 0,-4871.529 q 0,-220.295 115.328,-350.469 Q 16180.668,0 16376.225,0 q 185.527,0 305.87,135.181 125.357,135.182 125.357,345.463 z"
       style="font-weight:normal;font-size:5126.87060547px;font-family:'OCR-A BT';clip-rule:evenodd;fill:#000000;fill-rule:evenodd;image-rendering:optimizeQuality;shape-rendering:geometricPrecision;text-rendering:geometricPrecision"
       id="path4553"
       inkscape:connector-curvature="0" /><path
       d="m 22122.575,861.154 0,1311.758 2085.934,0 q 175.5,0 300.857,-135.181 130.371,-135.181 130.371,-305.409 l 0,-440.591 q 0,-170.228 -130.371,-300.402 -130.372,-130.175 -300.857,-130.175 l -2085.934,0 z M 21260.121,0 24208.509,0 q 531.513,0 917.611,380.51 386.099,380.51 386.099,911.221 l 0,440.591 q 0,535.717 -381.083,921.234 -381.085,380.51 -922.627,380.51 l -461.311,0 1679.778,2923.918 q 45.128,75.101 65.185,135.181 20.058,60.081 20.058,110.148 0,180.242 -125.357,305.409 -125.357,125.168 -305.87,125.168 -125.357,0 -230.656,-65.087 -105.3,-65.087 -170.485,-180.242 l -1940.522,-3354.495 -616.754,0 0,3129.193 q 0,215.289 -120.343,345.463 -120.342,135.181 -310.885,135.181 -190.541,0 -310.885,-135.181 -120.341,-135.181 -120.341,-345.463 l 0,-6163.259 z"
       style="font-weight:normal;font-size:5126.87060547px;font-family:'OCR-A BT';clip-rule:evenodd;fill:#000000;fill-rule:evenodd;image-rendering:optimizeQuality;shape-rendering:geometricPrecision;text-rendering:geometricPrecision"
       id="path4555"
       inkscape:connector-curvature="0" /><path
       d="m 27537.985,0 2126.049,0 q 466.325,0 812.309,340.456 350.998,335.45 350.998,766.027 0,215.289 -120.341,350.47 -120.342,130.174 -310.881,130.174 -185.525,0 -285.813,-95.127 -100.288,-100.134 -165.472,-415.557 -15.04,-80.108 -100.288,-145.195 -85.238,-70.094 -180.512,-70.094 l -2126.049,0 q -35.104,0 -70.198,35.047 -30.09,30.041 -30.09,65.087 0,15.021 5.013,35.047 10.027,15.021 25.077,40.054 l 3093.804,3965.314 q 135.382,180.241 200.566,345.463 65.184,165.221 65.184,335.449 0,395.53 -285.814,675.906 -280.8,285.382 -681.941,285.382 l -2126.049,0 q -461.312,0 -812.31,-340.456 -345.984,-340.456 -345.984,-766.026 0,-215.289 120.341,-345.463 120.342,-135.181 310.881,-135.181 180.522,0 280.8,100.134 100.288,95.127 170.485,410.55 15.051,80.107 100.288,150.201 85.248,65.088 175.499,65.088 l 2126.049,0 q 45.13,0 75.221,-30.041 30.08,-30.04 30.08,-70.094 0,-15.02 -10.026,-30.04 -5.014,-20.027 -20.054,-45.06 L 26840.992,1642.201 q -135.381,-180.242 -200.565,-345.463 -65.184,-165.221 -65.184,-335.45 0,-395.53 280.8,-675.905 Q 27141.857,0 27537.985,0 Z"
       style="font-weight:normal;font-size:5126.87060547px;font-family:'OCR-A BT';clip-rule:evenodd;fill:#000000;fill-rule:evenodd;image-rendering:optimizeQuality;shape-rendering:geometricPrecision;text-rendering:geometricPrecision"
       id="path4557"
       inkscape:connector-curvature="0" /><path
       d="m 31890.365,0 3770.728,0 q 215.615,0 345.986,120.161 135.384,120.161 135.384,310.416 0,185.249 -135.384,310.416 -135.386,120.161 -345.986,120.161 l -2908.274,0 0,2027.717 1223.48,0 q 210.6,0 340.97,120.161 130.371,120.162 130.371,310.416 0,190.255 -130.371,310.416 -130.37,120.162 -340.97,120.162 l -1223.48,0 0,2032.724 2908.274,0 q 215.615,0 345.986,120.16 135.384,120.161 135.384,310.416 0,190.255 -135.384,310.416 -135.386,120.161 -345.986,120.161 l -3770.728,0 0,-6643.903 z"
       style="font-weight:normal;font-size:5126.87060547px;font-family:'OCR-A BT';clip-rule:evenodd;fill:#000000;fill-rule:evenodd;image-rendering:optimizeQuality;shape-rendering:geometricPrecision;text-rendering:geometricPrecision"
       id="path4559"
       inkscape:connector-curvature="0" /></g><g
     id="g4932"
     inkscape:export-xdpi="90"
     inkscape:export-ydpi="90"
     transform="translate(-31329.664,67103.423)"><path
       d="m 43483.35,0 2126.048,0 q 466.327,0 812.313,340.456 350.997,335.45 350.997,766.027 0,215.289 -120.342,350.47 -120.343,130.174 -310.884,130.174 -185.528,0 -285.813,-95.127 -100.285,-100.134 -165.472,-415.557 -15.042,-80.108 -100.285,-145.195 -85.242,-70.094 -180.514,-70.094 l -2126.048,0 q -35.101,0 -70.2,35.047 -30.086,30.041 -30.086,65.087 0,15.021 5.014,35.047 10.029,15.021 25.072,40.054 l 3093.803,3965.314 q 135.384,180.241 200.571,345.463 65.184,165.221 65.184,335.449 0,395.53 -285.813,675.906 -280.799,285.382 -681.94,285.382 l -2126.051,0 q -461.311,0 -812.31,-340.456 -345.984,-340.456 -345.984,-766.026 0,-215.289 120.341,-345.463 120.344,-135.181 310.885,-135.181 180.514,0 280.8,100.134 100.285,95.127 170.485,410.55 15.042,80.107 100.285,150.201 85.242,65.088 175.498,65.088 l 2126.051,0 q 45.128,0 75.213,-30.041 30.086,-30.04 30.086,-70.094 0,-15.02 -10.028,-30.04 -5.015,-20.027 -20.058,-45.06 L 42786.365,1642.201 q -135.384,-180.242 -200.571,-345.463 -65.184,-165.221 -65.184,-335.45 0,-395.53 280.797,-675.905 Q 43087.222,0 43483.35,0 Z"
       style="font-weight:normal;font-size:5126.87060547px;font-family:'OCR-A BT';clip-rule:evenodd;fill:#000000;fill-rule:evenodd;image-rendering:optimizeQuality;shape-rendering:geometricPrecision;text-rendering:geometricPrecision"
       id="path4561"
       inkscape:connector-curvature="0" /><path
       d="m 48698.186,861.154 0,2388.201 2085.935,0 q 175.499,0 300.856,-130.175 130.372,-130.174 130.372,-300.402 l 0,-1527.047 q 0,-170.228 -130.372,-300.402 -125.357,-130.175 -300.856,-130.175 l -2085.935,0 z M 47835.732,0 50784.121,0 q 531.513,0 917.611,380.51 386.098,380.51 386.098,911.221 l 0,1527.047 q 0,535.717 -381.084,921.234 -381.085,380.51 -922.625,380.51 l -2085.935,0 0,2042.737 q 0,215.289 -120.342,345.463 -120.343,135.181 -310.884,135.181 -190.543,0 -310.885,-135.181 -120.343,-135.181 -120.343,-345.463 l 0,-6163.259 z"
       style="font-weight:normal;font-size:5126.87060547px;font-family:'OCR-A BT';clip-rule:evenodd;fill:#000000;fill-rule:evenodd;image-rendering:optimizeQuality;shape-rendering:geometricPrecision;text-rendering:geometricPrecision"
       id="path4563"
       inkscape:connector-curvature="0" /><path
       d="m 55276.905,1967.637 -700.288,2368.174 1390.497,0 -690.209,-2368.174 z m 463.498,-1486.993 1632.322,5572.468 q 15.114,45.06 20.153,90.12 10.075,45.061 10.075,80.108 0,175.235 -125.949,295.396 -125.951,125.167 -297.244,125.167 -151.142,0 -272.054,-100.134 -115.876,-95.127 -161.218,-255.342 l -322.434,-1091.462 -1889.262,0 -327.472,1086.455 q -60.456,185.249 -171.293,270.363 -105.798,90.12 -272.054,90.12 -166.255,0 -292.204,-125.167 -120.914,-120.161 -120.914,-285.383 0,-75.1 5.037,-110.147 5.04,-40.054 15.114,-75.101 L 54803.329,480.644 q 75.572,-270.362 181.369,-375.503 Q 55095.535,0 55276.905,0 q 176.33,0 282.13,100.134 105.798,100.135 181.368,380.51 z"
       style="font-weight:normal;font-size:5126.87060547px;font-family:'OCR-A BT';clip-rule:evenodd;fill:#000000;fill-rule:evenodd;image-rendering:optimizeQuality;shape-rendering:geometricPrecision;text-rendering:geometricPrecision"
       id="path4565"
       inkscape:connector-curvature="0" /><path
       d="m 60712.369,6643.903 q -401.141,0 -696.983,-195.261 -290.828,-195.262 -501.427,-615.825 l -892.54,-1772.375 q -80.227,-155.208 -120.341,-335.45 -35.101,-180.242 -35.101,-390.523 0,-220.296 35.101,-410.551 40.114,-190.255 120.341,-340.456 l 892.54,-1772.375 Q 59714.531,395.53 60010.373,200.269 60306.213,0 60712.369,0 l 1524.336,0 q 215.613,0 345.986,120.161 135.384,120.161 135.384,310.416 0,185.249 -135.384,310.416 -135.386,120.161 -345.986,120.161 l -1524.336,0 q -125.357,0 -235.669,70.094 -110.315,70.094 -175.501,195.262 l -882.51,1787.395 q -40.115,90.121 -60.173,190.255 -20.056,100.134 -20.056,215.288 0,120.162 20.056,220.296 20.058,100.134 60.173,190.255 l 882.51,1777.382 q 65.186,125.167 175.501,200.268 110.312,75.101 235.669,75.101 l 1524.336,0 q 215.613,0 345.986,120.16 135.384,120.161 135.384,310.416 0,190.255 -135.384,310.416 -135.386,120.161 -345.986,120.161 l -1524.336,0 z"
       style="font-weight:normal;font-size:5126.87060547px;font-family:'OCR-A BT';clip-rule:evenodd;fill:#000000;fill-rule:evenodd;image-rendering:optimizeQuality;shape-rendering:geometricPrecision;text-rendering:geometricPrecision"
       id="path4567"
       inkscape:connector-curvature="0" /><path
       d="m 63781.1,0 3770.728,0 q 215.613,0 345.984,120.161 135.386,120.161 135.386,310.416 0,185.249 -135.386,310.416 -135.384,120.161 -345.984,120.161 l -2908.274,0 0,2027.717 1223.481,0 q 210.599,0 340.97,120.161 130.37,120.162 130.37,310.416 0,190.255 -130.37,310.416 -130.371,120.162 -340.97,120.162 l -1223.481,0 0,2032.724 2908.274,0 q 215.613,0 345.984,120.16 135.386,120.161 135.386,310.416 0,190.255 -135.386,310.416 -135.384,120.161 -345.984,120.161 l -3770.728,0 0,-6643.903 z"
       style="font-weight:normal;font-size:5126.87060547px;font-family:'OCR-A BT';clip-rule:evenodd;fill:#000000;fill-rule:evenodd;image-rendering:optimizeQuality;shape-rendering:geometricPrecision;text-rendering:geometricPrecision"
       id="path4569"
       inkscape:connector-curvature="0" /></g><g
     style="clip-rule:evenodd;fill-rule:evenodd;stroke:#ff0000;stroke-width:1.0033145;stroke-opacity:1;image-rendering:optimizeQuality;shape-rendering:geometricPrecision;text-rendering:geometricPrecision"
     transform="matrix(78.048185,0,0,76.907115,665370.66,-249674.28)"
     id="g5007"
     inkscape:export-xdpi="90"
     inkscape:export-ydpi="90"><g
       id="g4444"
       style="stroke:#ff0000;stroke-width:1.00354838;stroke-opacity:1"
       transform="matrix(0.999767,0,0,0.99976701,1.9870277,1.3955934)"><path
         inkscape:connector-curvature="0"
         id="rect4225"
         d="m -8529.1033,3245.8 613.0475,0 0,699.9113 -613.0475,0 z"
         style="opacity:1;fill:none;fill-opacity:1;fill-rule:evenodd;stroke:none;stroke-width:2.00709677;stroke-linecap:butt;stroke-linejoin:miter;stroke-miterlimit:4;stroke-dasharray:none;stroke-opacity:1" /><path
         inkscape:connector-curvature="0"
         id="polygon37-1"
         d="m -8198.1345,3690.6423 73.738,-41.7683 0,-111.3068 -98.125,-55.6534 -98.241,55.6534 0,111.3068 73.853,41.7683 0,100.3568 -162.43,-92.0031 0,-211.5508 162.43,-92.0031 0,-59.9431 -215.346,121.9182 0,271.6068 215.346,121.9183 0,67.055 -274.474,-155.4458 0,-338.6618 298.8619,-169.218 298.7461,169.218 0,338.6618 -274.359,155.4458 0,-67.055 215.231,-121.9183 0,-271.6068 -215.231,-121.9182 0,59.9431 162.315,92.0031 0,211.5508 -162.315,92.0031 z"
         style="clip-rule:evenodd;opacity:1;fill:none;fill-opacity:1;fill-rule:evenodd;stroke:#000000;stroke-width:15.43947124;stroke-linecap:butt;stroke-linejoin:miter;stroke-miterlimit:4;stroke-dasharray:none;stroke-opacity:1;image-rendering:optimizeQuality;shape-rendering:geometricPrecision;text-rendering:geometricPrecision" /></g></g></svg>