<?xml version="1.0" encoding="UTF-8" standalone="no"?>
<!-- Creator: CorelDRAW X8 -->

<svg
   xmlns:dc="http://purl.org/dc/elements/1.1/"
   xmlns:cc="http://creativecommons.org/ns#"
   xmlns:rdf="http://www.w3.org/1999/02/22-rdf-syntax-ns#"
   xmlns:svg="http://www.w3.org/2000/svg"
   xmlns="http://www.w3.org/2000/svg"
   xmlns:sodipodi="http://sodipodi.sourceforge.net/DTD/sodipodi-0.dtd"
   xmlns:inkscape="http://www.inkscape.org/namespaces/inkscape"
   xml:space="preserve"
   width="1024"
   height="99.999992"
   version="1.1"
   style="clip-rule:evenodd;fill-rule:evenodd;image-rendering:optimizeQuality;shape-rendering:geometricPrecision;text-rendering:geometricPrecision"
   viewBox="0 0 68032.88 6643.903"
   id="svg2"
   inkscape:version="0.91 r13725"
   sodipodi:docname="logotipo.svg"><metadata
     id="metadata43"><rdf:RDF><cc:Work
         rdf:about=""><dc:format>image/svg+xml</dc:format><dc:type
           rdf:resource="http://purl.org/dc/dcmitype/StillImage" /><dc:title /></cc:Work></rdf:RDF></metadata><sodipodi:namedview
     pagecolor="#ffffff"
     bordercolor="#666666"
     borderopacity="1"
     objecttolerance="10"
     gridtolerance="10"
     guidetolerance="10"
     inkscape:pageopacity="0"
     inkscape:pageshadow="2"
     inkscape:window-width="1366"
     inkscape:window-height="680"
     id="namedview41"
     showgrid="true"
     showguides="true"
     units="px"
     fit-margin-top="0"
     fit-margin-left="0"
     fit-margin-right="0"
     fit-margin-bottom="0"
     inkscape:zoom="0.67870269"
     inkscape:cx="495.40563"
     inkscape:cy="-90.004176"
     inkscape:window-x="0"
     inkscape:window-y="27"
     inkscape:window-maximized="1"
     inkscape:current-layer="svg2"><inkscape:grid
       type="xygrid"
       id="grid4251"
       originx="-14677.187"
       originy="-133856.34" /></sodipodi:namedview><defs
     id="defs4"><style
       type="text/css"
       id="style29"><![CDATA[
    @font-face { font-family:"OCR-A BT";font-variant:normal;font-style:normal;font-weight:normal;src:url("#FontID0") format(svg)}
    .str0 {stroke:black;stroke-width:186.843}
    .fil1 {fill:none}
    .fil0 {fill:black}
    .fnt0 {font-weight:normal;font-size:953.446px;font-family:'OCR-A BT'}
   ]]></style></defs><g
     style="font-weight:normal;font-size:745.54962158px;font-family:'OCR-A BT';fill:#000000"
     id="text33"
     transform="translate(-14677.337,131599.25)" /><g
     id="g4713"
     transform="translate(0,0.00227745)"
     inkscape:export-xdpi="90"
     inkscape:export-ydpi="90"><path
       d="m 862.08479,861.15172 0,1311.75798 2085.93471,0 q 175.4993,0 300.856,-135.181 130.3709,-135.181 130.3709,-305.409 l 0,-440.591 q 0,-170.228 -130.3709,-300.40198 -130.3709,-130.175 -300.856,-130.175 l -2085.93471,0 z M -0.36901561,-0.00227745 l 2948.38851561,0 q 531.5122,0 917.6107,380.50999745 386.0987,380.51 386.0987,911.22098 l 0,440.591 q 0,535.717 -381.0843,921.234 -381.0844,380.51 -922.6251,380.51 l -461.3125,0 1679.7792,2923.918 q 45.1284,75.101 65.1855,135.181 20.0572,60.081 20.0572,110.148 0,180.242 -125.3567,305.409 -125.3568,125.168 -305.8704,125.168 -125.3565,0 -230.6562,-65.087 -105.2995,-65.087 -170.485,-180.242 l -1940.5211,-3354.495 -616.75471,0 0,3129.193 q 0,215.289 -120.34239,345.463 -120.3424,135.181 -310.88451,135.181 -190.54212,0 -310.88451,-135.181 -120.34239561,-135.181 -120.34239561,-345.463 l 0,-6163.25897745 z"
       style="font-weight:normal;font-size:5126.87060547px;font-family:'OCR-A BT';clip-rule:evenodd;fill:#000000;fill-rule:evenodd;image-rendering:optimizeQuality;shape-rendering:geometricPrecision;text-rendering:geometricPrecision"
       id="path4547"
       inkscape:connector-curvature="0" /><path
       d="m 5314.7534,-0.00227745 3770.7283,0 q 215.614,0 345.9845,120.16099745 135.3851,120.161 135.3851,310.416 0,185.249 -135.3851,310.416 -135.385,120.161 -345.9845,120.161 l -2908.2744,0 0,2027.71698 1223.4813,0 q 210.5992,0 340.9701,120.161 130.371,120.162 130.371,310.416 0,190.255 -130.371,310.416 -130.3709,120.162 -340.9701,120.162 l -1223.4813,0 0,2032.724 2908.2744,0 q 215.614,0 345.9845,120.16 135.3851,120.161 135.3851,310.416 0,190.255 -135.3851,310.416 -135.385,120.161 -345.9845,120.161 l -3770.7283,0 0,-6643.90297745 z"
       style="font-weight:normal;font-size:5126.87060547px;font-family:'OCR-A BT';clip-rule:evenodd;fill:#000000;fill-rule:evenodd;image-rendering:optimizeQuality;shape-rendering:geometricPrecision;text-rendering:geometricPrecision"
       id="path4549"
       inkscape:connector-curvature="0" /><path
       d="m 12876.267,6643.9007 q -401.141,0 -696.983,-195.261 -290.827,-195.262 -501.427,-615.825 l -892.539,-1772.375 q -80.228,-155.208 -120.342,-335.45 -35.1,-180.242 -35.1,-390.523 0,-220.296 35.1,-410.551 40.114,-190.255 120.342,-340.456 l 892.539,-1772.37498 q 200.572,-415.557 496.413,-610.818 295.841,-200.26899745 701.997,-200.26899745 l 1524.337,0 q 215.613,0 345.985,120.16099745 135.385,120.161 135.385,310.416 0,185.249 -135.385,310.416 -135.386,120.161 -345.985,120.161 l -1524.337,0 q -125.357,0 -235.67,70.094 -110.314,70.09398 -175.499,195.26198 l -882.511,1787.395 q -40.115,90.121 -60.172,190.255 -20.057,100.134 -20.057,215.288 0,120.162 20.057,220.296 20.057,100.134 60.172,190.255 l 882.511,1777.382 q 65.185,125.167 175.499,200.268 110.313,75.101 235.67,75.101 l 1524.337,0 q 215.613,0 345.985,120.16 135.385,120.161 135.385,310.416 0,190.255 -135.385,310.416 -135.386,120.161 -345.985,120.161 l -1524.337,0 z"
       style="font-weight:normal;font-size:5126.87060547px;font-family:'OCR-A BT';clip-rule:evenodd;fill:#000000;fill-rule:evenodd;image-rendering:optimizeQuality;shape-rendering:geometricPrecision;text-rendering:geometricPrecision"
       id="path4551"
       inkscape:connector-curvature="0" /><path
       d="m 16807.452,480.64172 0,4871.52898 q 0,180.241 125.357,305.409 130.37,125.168 305.869,125.168 l 1654.707,0 q 170.485,0 305.871,-130.175 135.386,-130.174 135.386,-300.402 l 0,-4871.52898 q 0,-220.295 115.328,-350.469 120.341,-130.17499745 315.898,-130.17499745 185.528,0 305.871,135.18099745 125.357,135.182 125.357,345.463 l 0,4871.52898 q 0,530.711 -381.084,911.221 -381.085,380.509 -912.598,380.509 l -1654.707,0 q -541.541,0 -922.625,-380.509 -381.084,-375.504 -381.084,-911.221 l 0,-4871.52898 q 0,-220.295 115.328,-350.469 120.342,-130.17499745 315.899,-130.17499745 185.527,0 305.87,135.18099745 125.357,135.182 125.357,345.463 z"
       style="font-weight:normal;font-size:5126.87060547px;font-family:'OCR-A BT';clip-rule:evenodd;fill:#000000;fill-rule:evenodd;image-rendering:optimizeQuality;shape-rendering:geometricPrecision;text-rendering:geometricPrecision"
       id="path4553"
       inkscape:connector-curvature="0" /><path
       d="m 22122.575,861.15172 0,1311.75798 2085.934,0 q 175.5,0 300.857,-135.181 130.371,-135.181 130.371,-305.409 l 0,-440.591 q 0,-170.228 -130.371,-300.40198 -130.372,-130.175 -300.857,-130.175 l -2085.934,0 z m -862.454,-861.15399745 2948.388,0 q 531.513,0 917.611,380.50999745 386.099,380.51 386.099,911.22098 l 0,440.591 q 0,535.717 -381.083,921.234 -381.085,380.51 -922.627,380.51 l -461.311,0 1679.778,2923.918 q 45.128,75.101 65.185,135.181 20.058,60.081 20.058,110.148 0,180.242 -125.357,305.409 -125.357,125.168 -305.87,125.168 -125.357,0 -230.656,-65.087 -105.3,-65.087 -170.485,-180.242 l -1940.522,-3354.495 -616.754,0 0,3129.193 q 0,215.289 -120.343,345.463 -120.342,135.181 -310.885,135.181 -190.541,0 -310.885,-135.181 -120.341,-135.181 -120.341,-345.463 l 0,-6163.25897745 z"
       style="font-weight:normal;font-size:5126.87060547px;font-family:'OCR-A BT';clip-rule:evenodd;fill:#000000;fill-rule:evenodd;image-rendering:optimizeQuality;shape-rendering:geometricPrecision;text-rendering:geometricPrecision"
       id="path4555"
       inkscape:connector-curvature="0" /><path
       d="m 27537.985,-0.00227745 2126.049,0 q 466.325,0 812.309,340.45599745 350.998,335.45 350.998,766.02698 0,215.289 -120.341,350.47 -120.342,130.174 -310.881,130.174 -185.525,0 -285.813,-95.127 -100.288,-100.134 -165.472,-415.557 -15.04,-80.10798 -100.288,-145.19498 -85.238,-70.094 -180.512,-70.094 l -2126.049,0 q -35.104,0 -70.198,35.047 -30.09,30.041 -30.09,65.087 0,15.021 5.013,35.047 10.027,15.02098 25.077,40.05398 l 3093.804,3965.314 q 135.382,180.241 200.566,345.463 65.184,165.221 65.184,335.449 0,395.53 -285.814,675.906 -280.8,285.382 -681.941,285.382 l -2126.049,0 q -461.312,0 -812.31,-340.456 -345.984,-340.456 -345.984,-766.026 0,-215.289 120.341,-345.463 120.342,-135.181 310.881,-135.181 180.522,0 280.8,100.134 100.288,95.127 170.485,410.55 15.051,80.107 100.288,150.201 85.248,65.088 175.499,65.088 l 2126.049,0 q 45.13,0 75.221,-30.041 30.08,-30.04 30.08,-70.094 0,-15.02 -10.026,-30.04 -5.014,-20.027 -20.054,-45.06 l -3093.815,-3965.314 q -135.381,-180.242 -200.565,-345.463 -65.184,-165.221 -65.184,-335.44998 0,-395.53 280.8,-675.905 285.814,-285.38299745 681.942,-285.38299745 z"
       style="font-weight:normal;font-size:5126.87060547px;font-family:'OCR-A BT';clip-rule:evenodd;fill:#000000;fill-rule:evenodd;image-rendering:optimizeQuality;shape-rendering:geometricPrecision;text-rendering:geometricPrecision"
       id="path4557"
       inkscape:connector-curvature="0" /><path
       d="m 31890.365,-0.00227745 3770.728,0 q 215.615,0 345.986,120.16099745 135.384,120.161 135.384,310.416 0,185.249 -135.384,310.416 -135.386,120.161 -345.986,120.161 l -2908.274,0 0,2027.71698 1223.48,0 q 210.6,0 340.97,120.161 130.371,120.162 130.371,310.416 0,190.255 -130.371,310.416 -130.37,120.162 -340.97,120.162 l -1223.48,0 0,2032.724 2908.274,0 q 215.615,0 345.986,120.16 135.384,120.161 135.384,310.416 0,190.255 -135.384,310.416 -135.386,120.161 -345.986,120.161 l -3770.728,0 0,-6643.90297745 z"
       style="font-weight:normal;font-size:5126.87060547px;font-family:'OCR-A BT';clip-rule:evenodd;fill:#000000;fill-rule:evenodd;image-rendering:optimizeQuality;shape-rendering:geometricPrecision;text-rendering:geometricPrecision"
       id="path4559"
       inkscape:connector-curvature="0" /><path
       d="m 43483.35,-0.00227745 2126.048,0 q 466.327,0 812.313,340.45599745 350.997,335.45 350.997,766.02698 0,215.289 -120.342,350.47 -120.343,130.174 -310.884,130.174 -185.528,0 -285.813,-95.127 -100.285,-100.134 -165.472,-415.557 -15.042,-80.10798 -100.285,-145.19498 -85.242,-70.094 -180.514,-70.094 l -2126.048,0 q -35.101,0 -70.2,35.047 -30.086,30.041 -30.086,65.087 0,15.021 5.014,35.047 10.029,15.02098 25.072,40.05398 l 3093.803,3965.314 q 135.384,180.241 200.571,345.463 65.184,165.221 65.184,335.449 0,395.53 -285.813,675.906 -280.799,285.382 -681.94,285.382 l -2126.051,0 q -461.311,0 -812.31,-340.456 -345.984,-340.456 -345.984,-766.026 0,-215.289 120.341,-345.463 120.344,-135.181 310.885,-135.181 180.514,0 280.8,100.134 100.285,95.127 170.485,410.55 15.042,80.107 100.285,150.201 85.242,65.088 175.498,65.088 l 2126.051,0 q 45.128,0 75.213,-30.041 30.086,-30.04 30.086,-70.094 0,-15.02 -10.028,-30.04 -5.015,-20.027 -20.058,-45.06 l -3093.803,-3965.314 q -135.384,-180.242 -200.571,-345.463 -65.184,-165.221 -65.184,-335.44998 0,-395.53 280.797,-675.905 285.815,-285.38299745 681.943,-285.38299745 z"
       style="font-weight:normal;font-size:5126.87060547px;font-family:'OCR-A BT';clip-rule:evenodd;fill:#000000;fill-rule:evenodd;image-rendering:optimizeQuality;shape-rendering:geometricPrecision;text-rendering:geometricPrecision"
       id="path4561"
       inkscape:connector-curvature="0" /><path
       d="m 48698.186,861.15172 0,2388.20098 2085.935,0 q 175.499,0 300.856,-130.175 130.372,-130.174 130.372,-300.402 l 0,-1527.047 q 0,-170.228 -130.372,-300.40198 -125.357,-130.175 -300.856,-130.175 l -2085.935,0 z m -862.454,-861.15399745 2948.389,0 q 531.513,0 917.611,380.50999745 386.098,380.51 386.098,911.22098 l 0,1527.047 q 0,535.717 -381.084,921.234 -381.085,380.51 -922.625,380.51 l -2085.935,0 0,2042.737 q 0,215.289 -120.342,345.463 -120.343,135.181 -310.884,135.181 -190.543,0 -310.885,-135.181 -120.343,-135.181 -120.343,-345.463 l 0,-6163.25897745 z"
       style="font-weight:normal;font-size:5126.87060547px;font-family:'OCR-A BT';clip-rule:evenodd;fill:#000000;fill-rule:evenodd;image-rendering:optimizeQuality;shape-rendering:geometricPrecision;text-rendering:geometricPrecision"
       id="path4563"
       inkscape:connector-curvature="0" /><path
       d="m 55276.905,1967.6347 -700.288,2368.174 1390.497,0 -690.209,-2368.174 z m 463.498,-1486.99298 1632.322,5572.46798 q 15.114,45.06 20.153,90.12 10.075,45.061 10.075,80.108 0,175.235 -125.949,295.396 -125.951,125.167 -297.244,125.167 -151.142,0 -272.054,-100.134 -115.876,-95.127 -161.218,-255.342 l -322.434,-1091.462 -1889.262,0 -327.472,1086.455 q -60.456,185.249 -171.293,270.363 -105.798,90.12 -272.054,90.12 -166.255,0 -292.204,-125.167 -120.914,-120.161 -120.914,-285.383 0,-75.1 5.037,-110.147 5.04,-40.054 15.114,-75.101 L 54803.329,480.64172 q 75.572,-270.362 181.369,-375.503 110.837,-105.14099745 292.207,-105.14099745 176.33,0 282.13,100.13399745 105.798,100.135 181.368,380.51 z"
       style="font-weight:normal;font-size:5126.87060547px;font-family:'OCR-A BT';clip-rule:evenodd;fill:#000000;fill-rule:evenodd;image-rendering:optimizeQuality;shape-rendering:geometricPrecision;text-rendering:geometricPrecision"
       id="path4565"
       inkscape:connector-curvature="0" /><path
       d="m 60712.369,6643.9007 q -401.141,0 -696.983,-195.261 -290.828,-195.262 -501.427,-615.825 l -892.54,-1772.375 q -80.227,-155.208 -120.341,-335.45 -35.101,-180.242 -35.101,-390.523 0,-220.296 35.101,-410.551 40.114,-190.255 120.341,-340.456 l 892.54,-1772.37498 q 200.572,-415.557 496.414,-610.818 295.84,-200.26899745 701.996,-200.26899745 l 1524.336,0 q 215.613,0 345.986,120.16099745 135.384,120.161 135.384,310.416 0,185.249 -135.384,310.416 -135.386,120.161 -345.986,120.161 l -1524.336,0 q -125.357,0 -235.669,70.094 -110.315,70.09398 -175.501,195.26198 l -882.51,1787.395 q -40.115,90.121 -60.173,190.255 -20.056,100.134 -20.056,215.288 0,120.162 20.056,220.296 20.058,100.134 60.173,190.255 l 882.51,1777.382 q 65.186,125.167 175.501,200.268 110.312,75.101 235.669,75.101 l 1524.336,0 q 215.613,0 345.986,120.16 135.384,120.161 135.384,310.416 0,190.255 -135.384,310.416 -135.386,120.161 -345.986,120.161 l -1524.336,0 z"
       style="font-weight:normal;font-size:5126.87060547px;font-family:'OCR-A BT';clip-rule:evenodd;fill:#000000;fill-rule:evenodd;image-rendering:optimizeQuality;shape-rendering:geometricPrecision;text-rendering:geometricPrecision"
       id="path4567"
       inkscape:connector-curvature="0" /><path
       d="m 63781.1,-0.00227745 3770.728,0 q 215.613,0 345.984,120.16099745 135.386,120.161 135.386,310.416 0,185.249 -135.386,310.416 -135.384,120.161 -345.984,120.161 l -2908.274,0 0,2027.71698 1223.481,0 q 210.599,0 340.97,120.161 130.37,120.162 130.37,310.416 0,190.255 -130.37,310.416 -130.371,120.162 -340.97,120.162 l -1223.481,0 0,2032.724 2908.274,0 q 215.613,0 345.984,120.16 135.386,120.161 135.386,310.416 0,190.255 -135.386,310.416 -135.384,120.161 -345.984,120.161 l -3770.728,0 0,-6643.90297745 z"
       style="font-weight:normal;font-size:5126.87060547px;font-family:'OCR-A BT';clip-rule:evenodd;fill:#000000;fill-rule:evenodd;image-rendering:optimizeQuality;shape-rendering:geometricPrecision;text-rendering:geometricPrecision"
       id="path4569"
       inkscape:connector-curvature="0" /></g></svg>