<?xml version="1.0" encoding="UTF-8" standalone="no"?>
<!-- Creator: CorelDRAW X8 -->

<svg
   xmlns:dc="http://purl.org/dc/elements/1.1/"
   xmlns:cc="http://creativecommons.org/ns#"
   xmlns:rdf="http://www.w3.org/1999/02/22-rdf-syntax-ns#"
   xmlns:svg="http://www.w3.org/2000/svg"
   xmlns="http://www.w3.org/2000/svg"
   xmlns:sodipodi="http://sodipodi.sourceforge.net/DTD/sodipodi-0.dtd"
   xmlns:inkscape="http://www.inkscape.org/namespaces/inkscape"
   xml:space="preserve"
   width="2691.657"
   height="1024"
   version="1.1"
   style="clip-rule:evenodd;fill-rule:evenodd;image-rendering:optimizeQuality;shape-rendering:geometricPrecision;text-rendering:geometricPrecision"
   viewBox="0 0 178829.28 68033.572"
   id="svg2"
   inkscape:version="0.91 r13725"
   sodipodi:docname="cover.svg"><metadata
     id="metadata43"><rdf:RDF><cc:Work
         rdf:about=""><dc:format>image/svg+xml</dc:format><dc:type
           rdf:resource="http://purl.org/dc/dcmitype/StillImage" /><dc:title></dc:title></cc:Work></rdf:RDF></metadata><sodipodi:namedview
     pagecolor="#ffffff"
     bordercolor="#666666"
     borderopacity="1"
     objecttolerance="10"
     gridtolerance="10"
     guidetolerance="10"
     inkscape:pageopacity="0"
     inkscape:pageshadow="2"
     inkscape:window-width="1366"
     inkscape:window-height="680"
     id="namedview41"
     showgrid="true"
     showguides="true"
     units="px"
     fit-margin-top="0"
     fit-margin-left="0"
     fit-margin-right="0"
     fit-margin-bottom="0"
     inkscape:zoom="0.1767767"
     inkscape:cx="1772.0237"
     inkscape:cy="867.6041"
     inkscape:window-x="0"
     inkscape:window-y="27"
     inkscape:window-maximized="1"
     inkscape:current-layer="svg2"><inkscape:grid
       type="xygrid"
       id="grid4251"
       originx="40721.026"
       originy="-130135.76" /></sodipodi:namedview><defs
     id="defs4"><style
       type="text/css"
       id="style29"><![CDATA[
    @font-face { font-family:"OCR-A BT";font-variant:normal;font-style:normal;font-weight:normal;src:url("#FontID0") format(svg)}
    .str0 {stroke:black;stroke-width:186.843}
    .fil1 {fill:none}
    .fil0 {fill:black}
    .fnt0 {font-weight:normal;font-size:953.446px;font-family:'OCR-A BT'}
   ]]></style><clipPath
       clipPathUnits="userSpaceOnUse"
       id="clipPath4482"><rect
         style="color:#000000;clip-rule:nonzero;display:inline;overflow:visible;visibility:visible;opacity:1;isolation:auto;mix-blend-mode:normal;color-interpolation:sRGB;color-interpolation-filters:linearRGB;solid-color:#000000;solid-opacity:1;fill:#33b5e7;fill-opacity:1;fill-rule:nonzero;stroke:none;stroke-width:0.13;stroke-linecap:butt;stroke-linejoin:miter;stroke-miterlimit:4;stroke-dasharray:none;stroke-dashoffset:0;stroke-opacity:1;color-rendering:auto;image-rendering:auto;shape-rendering:auto;text-rendering:auto;enable-background:accumulate"
         id="rect4484"
         width="178831.09"
         height="68033.57"
         x="-71344.32"
         y="-3720.5864" /></clipPath><filter
       inkscape:collect="always"
       style="color-interpolation-filters:sRGB"
       id="filter4507"
       x="-0.042812501"
       width="1.085625"
       y="-0.1002439"
       height="1.2004878"><feGaussianBlur
         inkscape:collect="always"
         stdDeviation="1137.7684"
         id="feGaussianBlur4509" /></filter><filter
       inkscape:collect="always"
       style="color-interpolation-filters:sRGB"
       id="filter4532"
       x="-0.048421057"
       width="1.0968421"
       y="-0.078857132"
       height="1.1577143"><feGaussianBlur
         inkscape:collect="always"
         stdDeviation="3102.3053"
         id="feGaussianBlur4534" /></filter><filter
       inkscape:collect="always"
       style="color-interpolation-filters:sRGB"
       id="filter4584"
       x="-0.046027398"
       width="1.0920548"
       y="-0.086153845"
       height="1.1723077"><feGaussianBlur
         inkscape:collect="always"
         stdDeviation="930.14644"
         id="feGaussianBlur4586" /></filter><filter
       inkscape:collect="always"
       style="color-interpolation-filters:sRGB"
       id="filter4637"
       x="-0.050540542"
       width="1.1010811"
       y="-0.073815787"
       height="1.1476316"><feGaussianBlur
         inkscape:collect="always"
         stdDeviation="1553.0123"
         id="feGaussianBlur4639" /></filter><filter
       inkscape:collect="always"
       style="color-interpolation-filters:sRGB"
       id="filter4660"
       x="-0.039718311"
       width="1.0794366"
       y="-0.12260869"
       height="1.2452174"><feGaussianBlur
         inkscape:collect="always"
         stdDeviation="780.65862"
         id="feGaussianBlur4662" /></filter><clipPath
       clipPathUnits="userSpaceOnUse"
       id="clipPath4733"><rect
         style="color:#000000;clip-rule:nonzero;display:inline;overflow:visible;visibility:visible;opacity:1;isolation:auto;mix-blend-mode:normal;color-interpolation:sRGB;color-interpolation-filters:linearRGB;solid-color:#000000;solid-opacity:1;fill:#ffffff;fill-opacity:1;fill-rule:nonzero;stroke:none;stroke-width:0.13;stroke-linecap:butt;stroke-linejoin:miter;stroke-miterlimit:4;stroke-dasharray:none;stroke-dashoffset:0;stroke-opacity:1;color-rendering:auto;image-rendering:auto;shape-rendering:auto;text-rendering:auto;enable-background:accumulate"
         id="rect4735"
         width="271823.16"
         height="103411"
         x="-117841.53"
         y="-21409.297" /></clipPath><clipPath
       clipPathUnits="userSpaceOnUse"
       id="clipPath4737"><rect
         style="color:#000000;clip-rule:nonzero;display:inline;overflow:visible;visibility:visible;opacity:1;isolation:auto;mix-blend-mode:normal;color-interpolation:sRGB;color-interpolation-filters:linearRGB;solid-color:#000000;solid-opacity:1;fill:#ffffff;fill-opacity:1;fill-rule:nonzero;stroke:none;stroke-width:0.13;stroke-linecap:butt;stroke-linejoin:miter;stroke-miterlimit:4;stroke-dasharray:none;stroke-dashoffset:0;stroke-opacity:1;color-rendering:auto;image-rendering:auto;shape-rendering:auto;text-rendering:auto;enable-background:accumulate"
         id="rect4739"
         width="178831.05"
         height="68033.562"
         x="13272.945"
         y="-77634.531"
         transform="matrix(0.70710676,0.7071068,-0.70710676,0.7071068,0,0)" /></clipPath><clipPath
       clipPathUnits="userSpaceOnUse"
       id="clipPath4741"><rect
         style="color:#000000;clip-rule:nonzero;display:inline;overflow:visible;visibility:visible;opacity:1;isolation:auto;mix-blend-mode:normal;color-interpolation:sRGB;color-interpolation-filters:linearRGB;solid-color:#000000;solid-opacity:1;fill:#ffffff;fill-opacity:1;fill-rule:nonzero;stroke:none;stroke-width:0.13;stroke-linecap:butt;stroke-linejoin:miter;stroke-miterlimit:4;stroke-dasharray:none;stroke-dashoffset:0;stroke-opacity:1;color-rendering:auto;image-rendering:auto;shape-rendering:auto;text-rendering:auto;enable-background:accumulate"
         id="rect4743"
         width="178831.05"
         height="68033.562"
         x="-44646.273"
         y="114776.02"
         transform="matrix(0.70710676,-0.7071068,0.70710676,0.7071068,0,0)" /></clipPath><clipPath
       clipPathUnits="userSpaceOnUse"
       id="clipPath4745"><rect
         style="color:#000000;clip-rule:nonzero;display:inline;overflow:visible;visibility:visible;opacity:1;isolation:auto;mix-blend-mode:normal;color-interpolation:sRGB;color-interpolation-filters:linearRGB;solid-color:#000000;solid-opacity:1;fill:#ffffff;fill-opacity:1;fill-rule:nonzero;stroke:none;stroke-width:0.13;stroke-linecap:butt;stroke-linejoin:miter;stroke-miterlimit:4;stroke-dasharray:none;stroke-dashoffset:0;stroke-opacity:1;color-rendering:auto;image-rendering:auto;shape-rendering:auto;text-rendering:auto;enable-background:accumulate"
         id="rect4747"
         width="177183.39"
         height="67406.734"
         x="-36109.105"
         y="43230.465"
         transform="matrix(0.6745979,0.73818539,-0.6745979,0.73818539,0,0)" /></clipPath><clipPath
       clipPathUnits="userSpaceOnUse"
       id="clipPath4749"><rect
         style="color:#000000;clip-rule:nonzero;display:inline;overflow:visible;visibility:visible;opacity:1;isolation:auto;mix-blend-mode:normal;color-interpolation:sRGB;color-interpolation-filters:linearRGB;solid-color:#000000;solid-opacity:1;fill:#ffffff;fill-opacity:1;fill-rule:nonzero;stroke:none;stroke-width:0.13;stroke-linecap:butt;stroke-linejoin:miter;stroke-miterlimit:4;stroke-dasharray:none;stroke-dashoffset:0;stroke-opacity:1;color-rendering:auto;image-rendering:auto;shape-rendering:auto;text-rendering:auto;enable-background:accumulate"
         id="rect4751"
         width="178831.05"
         height="68033.562"
         x="79009.203"
         y="-138992.45"
         transform="matrix(0.70710676,0.7071068,-0.70710676,0.7071068,0,0)" /></clipPath><clipPath
       clipPathUnits="userSpaceOnUse"
       id="clipPath4753"><rect
         style="color:#000000;clip-rule:nonzero;display:inline;overflow:visible;visibility:visible;opacity:1;isolation:auto;mix-blend-mode:normal;color-interpolation:sRGB;color-interpolation-filters:linearRGB;solid-color:#000000;solid-opacity:1;fill:#ffffff;fill-opacity:1;fill-rule:nonzero;stroke:none;stroke-width:0.13;stroke-linecap:butt;stroke-linejoin:miter;stroke-miterlimit:4;stroke-dasharray:none;stroke-dashoffset:0;stroke-opacity:1;color-rendering:auto;image-rendering:auto;shape-rendering:auto;text-rendering:auto;enable-background:accumulate"
         id="rect4755"
         width="178831.05"
         height="68033.562"
         x="-11287.143"
         y="78697.445"
         transform="matrix(0.70710676,-0.7071068,0.70710676,0.7071068,0,0)" /></clipPath><clipPath
       clipPathUnits="userSpaceOnUse"
       id="clipPath4757"><rect
         style="color:#000000;clip-rule:nonzero;display:inline;overflow:visible;visibility:visible;opacity:1;isolation:auto;mix-blend-mode:normal;color-interpolation:sRGB;color-interpolation-filters:linearRGB;solid-color:#000000;solid-opacity:1;fill:#ffffff;fill-opacity:1;fill-rule:nonzero;stroke:none;stroke-width:0.13;stroke-linecap:butt;stroke-linejoin:miter;stroke-miterlimit:4;stroke-dasharray:none;stroke-dashoffset:0;stroke-opacity:1;color-rendering:auto;image-rendering:auto;shape-rendering:auto;text-rendering:auto;enable-background:accumulate"
         id="rect4759"
         width="178831.05"
         height="68033.562"
         x="-0.88436818"
         y="0.0041397982" /></clipPath></defs><rect
     style="color:#000000;clip-rule:nonzero;display:inline;overflow:visible;visibility:visible;opacity:1;isolation:auto;mix-blend-mode:normal;color-interpolation:sRGB;color-interpolation-filters:linearRGB;solid-color:#000000;solid-opacity:1;fill:#33b5e7;fill-opacity:1;fill-rule:nonzero;stroke:none;stroke-width:0.13;stroke-linecap:butt;stroke-linejoin:miter;stroke-miterlimit:4;stroke-dasharray:none;stroke-dashoffset:0;stroke-opacity:1;color-rendering:auto;image-rendering:auto;shape-rendering:auto;text-rendering:auto;enable-background:accumulate"
     id="rect4154-3"
     width="178831.09"
     height="68033.57"
     x="-0.90780568"
     y="0.00023354823"
     clip-path="url(#clipPath4757)"
     inkscape:export-xdpi="90"
     inkscape:export-ydpi="90" /><g
     id="g4588"
     transform="matrix(0.70710678,0.70710682,-0.70710674,0.70710678,11286.258,-78697.441)"
     clip-path="url(#clipPath4753)"
     inkscape:export-xdpi="90"
     inkscape:export-ydpi="90"><rect
       y="-63126.074"
       x="141083.25"
       height="25911.223"
       width="48500.492"
       id="rect4540"
       style="color:#000000;clip-rule:nonzero;display:inline;overflow:visible;visibility:visible;opacity:0.5;isolation:auto;mix-blend-mode:normal;color-interpolation:sRGB;color-interpolation-filters:linearRGB;solid-color:#000000;solid-opacity:1;fill:#151515;fill-opacity:1;fill-rule:nonzero;stroke:none;stroke-width:0.13;stroke-linecap:butt;stroke-linejoin:miter;stroke-miterlimit:4;stroke-dasharray:none;stroke-dashoffset:0;stroke-opacity:1;filter:url(#filter4584);color-rendering:auto;image-rendering:auto;shape-rendering:auto;text-rendering:auto;enable-background:accumulate" /><rect
       y="-62793.879"
       x="141415.44"
       height="25246.832"
       width="47836.102"
       id="rect4540-3"
       style="color:#000000;clip-rule:nonzero;display:inline;overflow:visible;visibility:visible;opacity:1;isolation:auto;mix-blend-mode:normal;color-interpolation:sRGB;color-interpolation-filters:linearRGB;solid-color:#000000;solid-opacity:1;fill:#9a32cd;fill-opacity:1;fill-rule:nonzero;stroke:none;stroke-width:0.13;stroke-linecap:butt;stroke-linejoin:miter;stroke-miterlimit:4;stroke-dasharray:none;stroke-dashoffset:0;stroke-opacity:1;color-rendering:auto;image-rendering:auto;shape-rendering:auto;text-rendering:auto;enable-background:accumulate" /></g><g
     id="g4641"
     transform="matrix(0.70710678,-0.70710682,0.70710674,0.70710678,-79010.089,138992.46)"
     clip-path="url(#clipPath4749)"
     inkscape:export-xdpi="90"
     inkscape:export-ydpi="90"><rect
       y="83181.672"
       x="182429.28"
       height="50493.664"
       width="73747.32"
       id="rect4544"
       style="color:#000000;clip-rule:nonzero;display:inline;overflow:visible;visibility:visible;opacity:0.5;isolation:auto;mix-blend-mode:normal;color-interpolation:sRGB;color-interpolation-filters:linearRGB;solid-color:#000000;solid-opacity:1;fill:#151515;fill-opacity:1;fill-rule:nonzero;stroke:none;stroke-width:0.13;stroke-linecap:butt;stroke-linejoin:miter;stroke-miterlimit:4;stroke-dasharray:none;stroke-dashoffset:0;stroke-opacity:1;filter:url(#filter4637);color-rendering:auto;image-rendering:auto;shape-rendering:auto;text-rendering:auto;enable-background:accumulate" /><rect
       transform="matrix(0,-1,1,0,0,0)"
       y="182761.47"
       x="-133343.14"
       height="73082.93"
       width="49829.277"
       id="rect4544-5"
       style="color:#000000;clip-rule:nonzero;display:inline;overflow:visible;visibility:visible;opacity:1;isolation:auto;mix-blend-mode:normal;color-interpolation:sRGB;color-interpolation-filters:linearRGB;solid-color:#000000;solid-opacity:1;fill:#99cd00;fill-opacity:1;fill-rule:nonzero;stroke:none;stroke-width:0.13;stroke-linecap:butt;stroke-linejoin:miter;stroke-miterlimit:4;stroke-dasharray:none;stroke-dashoffset:0;stroke-opacity:1;color-rendering:auto;image-rendering:auto;shape-rendering:auto;text-rendering:auto;enable-background:accumulate" /></g><g
     id="g4511"
     transform="matrix(0.74807464,-0.74807469,0.68363529,0.68363533,36444.007,-43632.471)"
     clip-path="url(#clipPath4745)"
     inkscape:export-xdpi="90"
     inkscape:export-ydpi="90"><rect
       y="22884.748"
       x="-85197.469"
       height="27240.004"
       width="63781.469"
       id="rect4486-6"
       style="color:#000000;clip-rule:nonzero;display:inline;overflow:visible;visibility:visible;opacity:0.4;isolation:auto;mix-blend-mode:normal;color-interpolation:sRGB;color-interpolation-filters:linearRGB;solid-color:#000000;solid-opacity:1;fill:#151515;fill-opacity:1;fill-rule:nonzero;stroke:none;stroke-width:0.13;stroke-linecap:butt;stroke-linejoin:miter;stroke-miterlimit:4;stroke-dasharray:none;stroke-dashoffset:0;stroke-opacity:1;filter:url(#filter4507);color-rendering:auto;image-rendering:auto;shape-rendering:auto;text-rendering:auto;enable-background:accumulate" /><rect
       y="23216.943"
       x="-84865.273"
       height="26575.613"
       width="63117.078"
       id="rect4486"
       style="color:#000000;clip-rule:nonzero;display:inline;overflow:visible;visibility:visible;opacity:1;isolation:auto;mix-blend-mode:normal;color-interpolation:sRGB;color-interpolation-filters:linearRGB;solid-color:#000000;solid-opacity:1;fill:#ffbc33;fill-opacity:1;fill-rule:nonzero;stroke:none;stroke-width:0.13;stroke-linecap:butt;stroke-linejoin:miter;stroke-miterlimit:4;stroke-dasharray:none;stroke-dashoffset:0;stroke-opacity:1;color-rendering:auto;image-rendering:auto;shape-rendering:auto;text-rendering:auto;enable-background:accumulate" /></g><g
     id="g4664"
     transform="matrix(0.70710678,0.70710682,-0.70710674,0.70710678,44645.388,-114776.02)"
     clip-path="url(#clipPath4741)"
     inkscape:export-xdpi="90"
     inkscape:export-ydpi="90"><rect
       y="39332.309"
       x="174601.09"
       height="15280.978"
       width="47171.711"
       id="rect4542"
       style="color:#000000;clip-rule:nonzero;display:inline;overflow:visible;visibility:visible;opacity:0.5;isolation:auto;mix-blend-mode:normal;color-interpolation:sRGB;color-interpolation-filters:linearRGB;solid-color:#000000;solid-opacity:1;fill:#151515;fill-opacity:1;fill-rule:nonzero;stroke:none;stroke-width:0.13;stroke-linecap:butt;stroke-linejoin:miter;stroke-miterlimit:4;stroke-dasharray:none;stroke-dashoffset:0;stroke-opacity:1;filter:url(#filter4660);color-rendering:auto;image-rendering:auto;shape-rendering:auto;text-rendering:auto;enable-background:accumulate" /><rect
       y="39664.504"
       x="174933.28"
       height="14616.588"
       width="46507.32"
       id="rect4542-9"
       style="color:#000000;clip-rule:nonzero;display:inline;overflow:visible;visibility:visible;opacity:1;isolation:auto;mix-blend-mode:normal;color-interpolation:sRGB;color-interpolation-filters:linearRGB;solid-color:#000000;solid-opacity:1;fill:#eeeef0;fill-opacity:1;fill-rule:nonzero;stroke:none;stroke-width:0.13;stroke-linecap:butt;stroke-linejoin:miter;stroke-miterlimit:4;stroke-dasharray:none;stroke-dashoffset:0;stroke-opacity:1;color-rendering:auto;image-rendering:auto;shape-rendering:auto;text-rendering:auto;enable-background:accumulate" /></g><g
     id="g4536"
     transform="matrix(0.70710678,-0.70710682,0.70710674,0.70710678,-13273.829,77634.535)"
     clip-path="url(#clipPath4737)"
     inkscape:export-xdpi="90"
     inkscape:export-ydpi="90"><rect
       y="-13192.214"
       x="12531.434"
       height="94418"
       width="153766.42"
       id="rect4515-7"
       style="color:#000000;clip-rule:nonzero;display:inline;overflow:visible;visibility:visible;opacity:0.5;isolation:auto;mix-blend-mode:normal;color-interpolation:sRGB;color-interpolation-filters:linearRGB;solid-color:#000000;solid-opacity:1;fill:#151515;fill-opacity:1;fill-rule:nonzero;stroke:none;stroke-width:0.13;stroke-linecap:butt;stroke-linejoin:miter;stroke-miterlimit:4;stroke-dasharray:none;stroke-dashoffset:0;stroke-opacity:1;filter:url(#filter4532);color-rendering:auto;image-rendering:auto;shape-rendering:auto;text-rendering:auto;enable-background:accumulate" /><rect
       y="-12988.242"
       x="12863.607"
       height="94010.055"
       width="153102.06"
       id="rect4515"
       style="color:#000000;clip-rule:nonzero;display:inline;overflow:visible;visibility:visible;opacity:1;isolation:auto;mix-blend-mode:normal;color-interpolation:sRGB;color-interpolation-filters:linearRGB;solid-color:#000000;solid-opacity:1;fill:#aa68cc;fill-opacity:1;fill-rule:nonzero;stroke:none;stroke-width:0.13;stroke-linecap:butt;stroke-linejoin:miter;stroke-miterlimit:4;stroke-dasharray:none;stroke-dashoffset:0;stroke-opacity:1;color-rendering:auto;image-rendering:auto;shape-rendering:auto;text-rendering:auto;enable-background:accumulate" /></g><g
     id="g4465"
     transform="matrix(0.65789481,0,0,0.65789481,77526.448,14085.069)"
     clip-path="url(#clipPath4733)"
     inkscape:export-xdpi="90"
     inkscape:export-ydpi="90"><path
       inkscape:connector-curvature="0"
       id="path4547"
       style="font-weight:normal;font-size:5126.87060547px;font-family:'OCR-A BT';clip-rule:evenodd;fill:#ffffff;fill-opacity:1;fill-rule:evenodd;stroke:none;stroke-width:1.00354838;stroke-opacity:1;image-rendering:optimizeQuality;shape-rendering:geometricPrecision;text-rendering:geometricPrecision"
       d="m 862.11422,44843.795 0,1311.759 2085.93568,0 q 175.5003,0 300.857,-135.183 130.3673,-135.18 130.3673,-305.409 l 0,-440.588 q 0,-170.23 -130.3673,-300.404 -130.3715,-130.175 -300.857,-130.175 l -2085.93568,0 z m -862.4527923,-861.153 2948.3884723,0 q 531.5114,0 917.6112,380.51 386.0997,380.51 386.0997,911.222 l 0,440.588 q 0,535.721 -381.085,921.235 -381.085,380.51 -922.6259,380.51 l -461.3129,0 1679.7811,2923.918 q 45.1245,75.101 65.1836,135.179 20.0591,60.083 20.0591,110.151 0,180.239 -125.3567,305.409 -125.3567,125.166 -305.8718,125.166 -125.3568,0 -230.6586,-65.088 -105.2976,-65.087 -170.4813,-180.243 l -1940.5241,-3354.492 -616.75408,0 0,3129.193 q 0,215.29 -120.34195,345.464 -120.34196,135.179 -310.88659,135.179 -190.54035,0 -310.8823,-135.179 Q -0.3385723,50356.181 -0.3385723,50145.9 l 0,-6163.258 z" /><path
       inkscape:connector-curvature="0"
       id="path4549"
       style="font-weight:normal;font-size:5126.87060547px;font-family:'OCR-A BT';clip-rule:evenodd;fill:#ffffff;fill-opacity:1;fill-rule:evenodd;stroke:none;stroke-width:1.00354838;stroke-opacity:1;image-rendering:optimizeQuality;shape-rendering:geometricPrecision;text-rendering:geometricPrecision"
       d="m 5314.7835,43982.642 3770.7273,0 q 215.6143,0 345.9858,120.161 135.3863,120.161 135.3863,310.418 0,185.248 -135.3863,310.413 -135.3863,120.161 -345.9858,120.161 l -2908.2745,0 0,2027.719 1223.4829,0 q 210.5995,0 340.971,120.161 130.3716,120.161 130.3716,310.413 0,190.257 -130.3716,310.418 -130.3715,120.161 -340.971,120.161 l -1223.4829,0 0,2032.724 2908.2745,0 q 215.6143,0 345.9858,120.16 135.3863,120.161 135.3863,310.414 0,190.257 -135.3863,310.418 -135.3863,120.16 -345.9858,120.16 l -3770.7273,0 0,-6643.901 z" /><path
       inkscape:connector-curvature="0"
       id="path4551"
       style="font-weight:normal;font-size:5126.87060547px;font-family:'OCR-A BT';clip-rule:evenodd;fill:#ffffff;fill-opacity:1;fill-rule:evenodd;stroke:none;stroke-width:1.00354838;stroke-opacity:1;image-rendering:optimizeQuality;shape-rendering:geometricPrecision;text-rendering:geometricPrecision"
       d="m 12876.297,50626.543 q -401.14,0 -696.982,-195.261 -290.827,-195.262 -501.427,-615.823 l -892.541,-1772.374 q -80.228,-155.211 -120.342,-335.45 -35.099,-180.244 -35.099,-390.524 0,-220.298 35.099,-410.551 40.114,-190.257 120.342,-340.455 l 892.541,-1772.374 q 200.57,-415.561 496.412,-610.818 295.843,-200.271 701.997,-200.271 l 1524.336,0 q 215.614,0 345.986,120.161 135.386,120.161 135.386,310.418 0,185.248 -135.386,310.413 -135.387,120.161 -345.986,120.161 l -1524.336,0 q -125.356,0 -235.669,70.096 -110.317,70.092 -175.5,195.262 l -882.512,1787.393 q -40.114,90.12 -60.169,190.257 -20.059,100.134 -20.059,215.285 0,120.161 20.059,220.299 20.055,100.133 60.169,190.252 l 882.512,1777.384 q 65.183,125.166 175.5,200.267 110.313,75.101 235.669,75.101 l 1524.336,0 q 215.614,0 345.986,120.16 135.386,120.161 135.386,310.414 0,190.257 -135.386,310.418 -135.387,120.16 -345.986,120.16 l -1524.336,0 z" /><path
       inkscape:connector-curvature="0"
       id="path4553"
       style="font-weight:normal;font-size:5126.87060547px;font-family:'OCR-A BT';clip-rule:evenodd;fill:#ffffff;fill-opacity:1;fill-rule:evenodd;stroke:none;stroke-width:1.00354838;stroke-opacity:1;image-rendering:optimizeQuality;shape-rendering:geometricPrecision;text-rendering:geometricPrecision"
       d="m 16807.481,44463.285 0,4871.527 q 0,180.243 125.356,305.409 130.372,125.17 305.872,125.17 l 1654.707,0 q 170.486,0 305.872,-130.175 135.386,-130.175 135.386,-300.404 l 0,-4871.527 q 0,-220.294 115.327,-350.468 120.338,-130.175 315.898,-130.175 185.525,0 305.871,135.179 125.357,135.184 125.357,345.464 l 0,4871.527 q 0,530.712 -381.085,911.222 -381.085,380.509 -912.596,380.509 l -1654.707,0 q -541.541,0 -922.626,-380.509 -381.085,-375.505 -381.085,-911.222 l 0,-4871.527 q 0,-220.294 115.327,-350.468 120.342,-130.175 315.901,-130.175 185.526,0 305.868,135.179 125.357,135.184 125.357,345.464 z" /><path
       inkscape:connector-curvature="0"
       id="path4555"
       style="font-weight:normal;font-size:5126.87060547px;font-family:'OCR-A BT';clip-rule:evenodd;fill:#ffffff;fill-opacity:1;fill-rule:evenodd;stroke:none;stroke-width:1.00354838;stroke-opacity:1;image-rendering:optimizeQuality;shape-rendering:geometricPrecision;text-rendering:geometricPrecision"
       d="m 22122.607,44843.795 0,1311.759 2085.931,0 q 175.501,0 300.857,-135.183 130.372,-135.18 130.372,-305.409 l 0,-440.588 q 0,-170.23 -130.372,-300.404 -130.371,-130.175 -300.857,-130.175 l -2085.931,0 z m -862.457,-861.153 2948.388,0 q 531.516,0 917.611,380.51 386.1,380.51 386.1,911.222 l 0,440.588 q 0,535.721 -381.08,921.235 -381.085,380.51 -922.631,380.51 l -461.308,0 1679.776,2923.918 q 45.129,75.101 65.184,135.179 20.059,60.083 20.059,110.151 0,180.239 -125.357,305.409 -125.356,125.166 -305.871,125.166 -125.357,0 -230.655,-65.088 -105.302,-65.087 -170.485,-180.243 l -1940.52,-3354.492 -616.754,0 0,3129.193 q 0,215.29 -120.346,345.464 -120.342,135.179 -310.883,135.179 -190.54,0 -310.886,-135.179 -120.342,-135.183 -120.342,-345.464 l 0,-6163.258 z" /><path
       inkscape:connector-curvature="0"
       id="path4557"
       style="font-weight:normal;font-size:5126.87060547px;font-family:'OCR-A BT';clip-rule:evenodd;fill:#ffffff;fill-opacity:1;fill-rule:evenodd;stroke:none;stroke-width:1.00354838;stroke-opacity:1;image-rendering:optimizeQuality;shape-rendering:geometricPrecision;text-rendering:geometricPrecision"
       d="m 27538.016,43982.642 2126.05,0 q 466.323,0 812.309,340.455 350.996,335.45 350.996,766.029 0,215.289 -120.342,350.468 -120.342,130.175 -310.878,130.175 -185.525,0 -285.812,-95.129 -100.292,-100.133 -165.475,-415.556 -15.04,-80.105 -100.287,-145.193 -85.239,-70.096 -180.511,-70.096 l -2126.05,0 q -35.103,0 -70.198,35.046 -30.089,30.041 -30.089,65.087 0,15.023 5.01,35.051 10.03,15.018 25.079,40.05 l 3093.804,3965.314 q 135.382,180.244 200.566,345.464 65.183,165.221 65.183,335.45 0,395.529 -285.812,675.905 -280.803,285.381 -681.942,285.381 l -2126.05,0 q -461.313,0 -812.309,-340.454 -345.986,-340.459 -345.986,-766.029 0,-215.289 120.342,-345.46 120.342,-135.183 310.882,-135.183 180.52,0 280.798,100.133 100.291,95.129 170.486,410.551 15.052,80.106 100.287,150.202 85.251,65.088 175.5,65.088 l 2126.05,0 q 45.128,0 75.221,-30.042 30.081,-30.041 30.081,-70.092 0,-15.022 -10.026,-30.041 -5.015,-20.027 -20.055,-45.06 l -3093.817,-3965.314 q -135.378,-180.243 -200.565,-345.464 -65.184,-165.22 -65.184,-335.45 0,-395.528 280.802,-675.905 285.813,-285.381 681.942,-285.381 z" /><path
       inkscape:connector-curvature="0"
       id="path4559"
       style="font-weight:normal;font-size:5126.87060547px;font-family:'OCR-A BT';clip-rule:evenodd;fill:#ffffff;fill-opacity:1;fill-rule:evenodd;stroke:none;stroke-width:1.00354838;stroke-opacity:1;image-rendering:optimizeQuality;shape-rendering:geometricPrecision;text-rendering:geometricPrecision"
       d="m 31890.394,43982.642 3770.732,0 q 215.614,0 345.985,120.161 135.382,120.161 135.382,310.418 0,185.248 -135.382,310.413 -135.386,120.161 -345.985,120.161 l -2908.275,0 0,2027.719 1223.479,0 q 210.599,0 340.971,120.161 130.371,120.161 130.371,310.413 0,190.257 -130.371,310.418 -130.372,120.161 -340.971,120.161 l -1223.479,0 0,2032.724 2908.275,0 q 215.614,0 345.985,120.16 135.382,120.161 135.382,310.414 0,190.257 -135.382,310.418 -135.386,120.16 -345.985,120.16 l -3770.732,0 0,-6643.901 z" /><path
       inkscape:connector-curvature="0"
       id="path4561"
       style="font-weight:normal;font-size:5126.87060547px;font-family:'OCR-A BT';clip-rule:evenodd;fill:#ffffff;fill-opacity:1;fill-rule:evenodd;stroke:none;stroke-width:1.00354838;stroke-opacity:1;image-rendering:optimizeQuality;shape-rendering:geometricPrecision;text-rendering:geometricPrecision"
       d="m 6277.5277,53948.5 2126.0454,0 q 466.3277,0 812.3135,340.455 350.9963,335.45 350.9963,766.029 0,215.289 -120.3419,350.469 -120.342,130.174 -310.8823,130.174 -185.5299,0 -285.8127,-95.128 -100.2871,-100.134 -165.4707,-415.556 -15.0444,-80.106 -100.2871,-145.193 -85.2428,-70.097 -180.5151,-70.097 l -2126.0454,0 q -35.1035,0 -70.2027,35.046 -30.0844,30.042 -30.0844,65.088 0,15.022 5.0148,35.05 10.0295,15.018 25.0696,40.051 l 3093.8044,3965.314 q 135.382,180.243 200.5699,345.464 65.1836,165.22 65.1836,335.45 0,395.528 -285.8127,675.904 -280.7978,285.382 -681.9377,285.382 l -2126.054,0 q -461.3086,0 -812.3092,-340.455 -345.9815,-340.459 -345.9815,-766.029 0,-215.289 120.3377,-345.459 120.3462,-135.184 310.8866,-135.184 180.515,0 280.8021,100.134 100.2828,95.128 170.4812,410.551 15.0444,80.105 100.2871,150.202 85.2428,65.087 175.496,65.087 l 2126.054,0 q 45.1288,0 75.2132,-30.041 30.0844,-30.042 30.0844,-70.092 0,-15.023 -10.0295,-30.042 -5.0148,-20.027 -20.0549,-45.059 L 5580.5413,55590.701 q -135.382,-180.244 -200.5699,-345.464 -65.1836,-165.221 -65.1836,-335.45 0,-395.529 280.7936,-675.905 285.817,-285.382 681.9463,-285.382 z" /><path
       inkscape:connector-curvature="0"
       id="path4563"
       style="font-weight:normal;font-size:5126.87060547px;font-family:'OCR-A BT';clip-rule:evenodd;fill:#ffffff;fill-opacity:1;fill-rule:evenodd;stroke:none;stroke-width:1.00354838;stroke-opacity:1;image-rendering:optimizeQuality;shape-rendering:geometricPrecision;text-rendering:geometricPrecision"
       d="m 11492.363,54809.653 0,2388.202 2085.935,0 q 175.496,0 300.857,-130.175 130.372,-130.174 130.372,-300.404 l 0,-1527.044 q 0,-170.23 -130.372,-300.404 -125.361,-130.175 -300.857,-130.175 l -2085.935,0 z m -862.453,-861.153 2948.388,0 q 531.512,0 917.612,380.51 386.095,380.51 386.095,911.222 l 0,1527.044 q 0,535.717 -381.081,921.235 -381.085,380.51 -922.626,380.51 l -2085.935,0 0,2042.738 q 0,215.289 -120.342,345.464 -120.342,135.179 -310.883,135.179 -190.544,0 -310.886,-135.179 -120.342,-135.184 -120.342,-345.464 l 0,-6163.259 z" /><path
       inkscape:connector-curvature="0"
       id="path4565"
       style="font-weight:normal;font-size:5126.87060547px;font-family:'OCR-A BT';clip-rule:evenodd;fill:#ffffff;fill-opacity:1;fill-rule:evenodd;stroke:none;stroke-width:1.00354838;stroke-opacity:1;image-rendering:optimizeQuality;shape-rendering:geometricPrecision;text-rendering:geometricPrecision"
       d="m 18071.082,55916.137 -700.288,2368.174 1390.495,0 -690.207,-2368.174 z m 463.497,-1486.993 1632.322,5572.468 q 15.113,45.059 20.154,90.119 10.076,45.06 10.076,80.106 0,175.238 -125.952,295.399 -125.947,125.166 -297.242,125.166 -151.142,0 -272.053,-100.133 -115.876,-95.129 -161.218,-255.345 l -322.437,-1091.46 -1889.258,0 -327.473,1086.455 q -60.456,185.249 -171.295,270.363 -105.799,90.12 -272.053,90.12 -166.254,0 -292.206,-125.166 -120.912,-120.161 -120.912,-285.385 0,-75.101 5.036,-110.147 5.041,-40.055 15.113,-75.101 l 1632.323,-5567.459 q 75.573,-270.363 181.371,-375.501 110.835,-105.143 292.207,-105.143 176.331,0 282.129,100.134 105.799,100.137 181.368,380.51 z" /><path
       inkscape:connector-curvature="0"
       id="path4567"
       style="font-weight:normal;font-size:5126.87060547px;font-family:'OCR-A BT';clip-rule:evenodd;fill:#ffffff;fill-opacity:1;fill-rule:evenodd;stroke:none;stroke-width:1.00354838;stroke-opacity:1;image-rendering:optimizeQuality;shape-rendering:geometricPrecision;text-rendering:geometricPrecision"
       d="m 23506.546,60592.402 q -401.14,0 -696.982,-195.262 -290.828,-195.262 -501.427,-615.822 l -892.542,-1772.375 q -80.228,-155.211 -120.342,-335.45 -35.099,-180.243 -35.099,-390.524 0,-220.298 35.099,-410.551 40.114,-190.257 120.342,-340.455 l 892.542,-1772.374 q 200.57,-415.56 496.412,-610.818 295.842,-200.271 701.997,-200.271 l 1524.335,0 q 215.615,0 345.986,120.161 135.386,120.161 135.386,310.418 0,185.248 -135.386,310.414 -135.386,120.16 -345.986,120.16 l -1524.335,0 q -125.357,0 -235.669,70.097 -110.317,70.092 -175.501,195.261 l -882.512,1787.394 q -40.114,90.119 -60.173,190.257 -20.055,100.133 -20.055,215.285 0,120.16 20.055,220.298 20.059,100.133 60.173,190.253 l 882.512,1777.383 q 65.184,125.166 175.501,200.267 110.312,75.101 235.669,75.101 l 1524.335,0 q 215.615,0 345.986,120.161 135.386,120.16 135.386,310.413 0,190.257 -135.386,310.418 -135.386,120.161 -345.986,120.161 l -1524.335,0 z" /><path
       inkscape:connector-curvature="0"
       id="path4569"
       style="font-weight:normal;font-size:5126.87060547px;font-family:'OCR-A BT';clip-rule:evenodd;fill:#ffffff;fill-opacity:1;fill-rule:evenodd;stroke:none;stroke-width:1.00354838;stroke-opacity:1;image-rendering:optimizeQuality;shape-rendering:geometricPrecision;text-rendering:geometricPrecision"
       d="m 26575.276,53948.5 3770.728,0 q 215.614,0 345.985,120.161 135.387,120.161 135.387,310.418 0,185.248 -135.387,310.414 -135.386,120.16 -345.985,120.16 l -2908.275,0 0,2027.719 1223.483,0 q 210.599,0 340.971,120.161 130.367,120.161 130.367,310.414 0,190.257 -130.367,310.417 -130.372,120.161 -340.971,120.161 l -1223.483,0 0,2032.724 2908.275,0 q 215.614,0 345.985,120.161 135.387,120.16 135.387,310.413 0,190.257 -135.387,310.418 -135.386,120.161 -345.985,120.161 l -3770.728,0 0,-6643.902 z" /><rect
       ry="18071.426"
       y="0.010024966"
       x="-0.16439584"
       height="36142.852"
       width="36142.836"
       id="rect4193"
       style="color:#000000;clip-rule:nonzero;display:inline;overflow:visible;visibility:visible;opacity:1;isolation:auto;mix-blend-mode:normal;color-interpolation:sRGB;color-interpolation-filters:linearRGB;solid-color:#000000;solid-opacity:1;fill:#ffffff;fill-opacity:1;fill-rule:nonzero;stroke:none;stroke-width:0.13;stroke-linecap:butt;stroke-linejoin:miter;stroke-miterlimit:4;stroke-dasharray:none;stroke-dashoffset:0;stroke-opacity:1;color-rendering:auto;image-rendering:auto;shape-rendering:auto;text-rendering:auto;enable-background:accumulate" /><path
       style="clip-rule:evenodd;opacity:1;fill:none;fill-opacity:1;fill-rule:evenodd;stroke:none;stroke-width:2.00709677;stroke-linecap:butt;stroke-linejoin:miter;stroke-miterlimit:4;stroke-dasharray:none;stroke-opacity:1;image-rendering:optimizeQuality;shape-rendering:geometricPrecision;text-rendering:geometricPrecision"
       d="m 4947.4753,3307.1963 26247.5167,0 0,29528.4587 -26247.5167,0 z"
       id="rect4225"
       inkscape:connector-curvature="0" /><path
       style="clip-rule:evenodd;opacity:1;fill:none;fill-opacity:1;fill-rule:evenodd;stroke:#99cd00;stroke-width:656.18811035;stroke-linecap:butt;stroke-linejoin:miter;stroke-miterlimit:4;stroke-dasharray:none;stroke-opacity:1;image-rendering:optimizeQuality;shape-rendering:geometricPrecision;text-rendering:geometricPrecision"
       d="m 19117.844,22074.584 3157.078,-1762.159 0,-4695.904 -4201.202,-2347.956 -4206.17,2347.956 0,4695.904 3162.003,1762.159 0,4233.938 -6954.413,-3881.503 0,-8925.087 6954.413,-3881.5075 0,-2528.9296 -9220.0026,5143.5861 0,11458.785 9220.0026,5143.594 0,2828.971 -11751.556,-6558.078 0,-14287.756 12795.718,-7139.1151 12790.76,7139.1151 0,14287.756 -11746.631,6558.078 0,-2828.971 9215.073,-5143.594 0,-11458.785 -9215.073,-5143.5861 0,2528.9296 6949.487,3881.5075 0,8925.087 -6949.487,3881.503 z"
       id="polygon37-1"
       inkscape:connector-curvature="0" /></g></svg>