<?xml version="1.0" encoding="UTF-8" standalone="no"?>
<!-- Creator: CorelDRAW X8 -->

<svg
   xmlns:dc="http://purl.org/dc/elements/1.1/"
   xmlns:cc="http://creativecommons.org/ns#"
   xmlns:rdf="http://www.w3.org/1999/02/22-rdf-syntax-ns#"
   xmlns:svg="http://www.w3.org/2000/svg"
   xmlns="http://www.w3.org/2000/svg"
   xmlns:sodipodi="http://sodipodi.sourceforge.net/DTD/sodipodi-0.dtd"
   xmlns:inkscape="http://www.inkscape.org/namespaces/inkscape"
   xml:space="preserve"
   width="2691.656"
   height="399.99988"
   version="1.1"
   style="clip-rule:evenodd;fill-rule:evenodd;image-rendering:optimizeQuality;shape-rendering:geometricPrecision;text-rendering:geometricPrecision"
   viewBox="0 0 178829.22 26575.606"
   id="svg2"
   inkscape:version="0.91 r13725"
   sodipodi:docname="art-work-header.svg"><metadata
     id="metadata43"><rdf:RDF><cc:Work
         rdf:about=""><dc:format>image/svg+xml</dc:format><dc:type
           rdf:resource="http://purl.org/dc/dcmitype/StillImage" /><dc:title /></cc:Work></rdf:RDF></metadata><sodipodi:namedview
     pagecolor="#ffffff"
     bordercolor="#666666"
     borderopacity="1"
     objecttolerance="10"
     gridtolerance="10"
     guidetolerance="10"
     inkscape:pageopacity="0"
     inkscape:pageshadow="2"
     inkscape:window-width="1366"
     inkscape:window-height="680"
     id="namedview41"
     showgrid="true"
     showguides="true"
     units="px"
     fit-margin-top="0"
     fit-margin-left="0"
     fit-margin-right="0"
     fit-margin-bottom="0"
     inkscape:zoom="0.15306557"
     inkscape:cx="1520.8271"
     inkscape:cy="144.02887"
     inkscape:window-x="0"
     inkscape:window-y="27"
     inkscape:window-maximized="1"
     inkscape:current-layer="svg2"><inkscape:grid
       type="xygrid"
       id="grid4251"
       originx="40721.011"
       originy="-171593.72" /></sodipodi:namedview><defs
     id="defs4"><style
       type="text/css"
       id="style29"><![CDATA[
    @font-face { font-family:"OCR-A BT";font-variant:normal;font-style:normal;font-weight:normal;src:url("#FontID0") format(svg)}
    .str0 {stroke:black;stroke-width:186.843}
    .fil1 {fill:none}
    .fil0 {fill:black}
    .fnt0 {font-weight:normal;font-size:953.446px;font-family:'OCR-A BT'}
   ]]></style><clipPath
       clipPathUnits="userSpaceOnUse"
       id="clipPath4482"><rect
         style="color:#000000;clip-rule:nonzero;display:inline;overflow:visible;visibility:visible;opacity:1;isolation:auto;mix-blend-mode:normal;color-interpolation:sRGB;color-interpolation-filters:linearRGB;solid-color:#000000;solid-opacity:1;fill:#33b5e7;fill-opacity:1;fill-rule:nonzero;stroke:none;stroke-width:0.13;stroke-linecap:butt;stroke-linejoin:miter;stroke-miterlimit:4;stroke-dasharray:none;stroke-dashoffset:0;stroke-opacity:1;color-rendering:auto;image-rendering:auto;shape-rendering:auto;text-rendering:auto;enable-background:accumulate"
         id="rect4484"
         width="178831.09"
         height="68033.57"
         x="-71344.32"
         y="-3720.5864" /></clipPath><filter
       inkscape:collect="always"
       style="color-interpolation-filters:sRGB"
       id="filter4507"
       x="-0.0428125"
       width="1.0856251"
       y="-0.1002439"
       height="1.2004879"><feGaussianBlur
         inkscape:collect="always"
         stdDeviation="1137.7684"
         id="feGaussianBlur4509" /></filter><filter
       inkscape:collect="always"
       style="color-interpolation-filters:sRGB"
       id="filter4532"
       x="-0.048421059"
       width="1.0968421"
       y="-0.078857131"
       height="1.1577142"><feGaussianBlur
         inkscape:collect="always"
         stdDeviation="3102.3053"
         id="feGaussianBlur4534" /></filter><filter
       inkscape:collect="always"
       style="color-interpolation-filters:sRGB"
       id="filter4584"
       x="-0.0460274"
       width="1.0920548"
       y="-0.086153843"
       height="1.1723077"><feGaussianBlur
         inkscape:collect="always"
         stdDeviation="930.14644"
         id="feGaussianBlur4586" /></filter><filter
       inkscape:collect="always"
       style="color-interpolation-filters:sRGB"
       id="filter4637"
       x="-0.05054054"
       width="1.1010811"
       y="-0.073815785"
       height="1.1476316"><feGaussianBlur
         inkscape:collect="always"
         stdDeviation="1553.0123"
         id="feGaussianBlur4639" /></filter><filter
       inkscape:collect="always"
       style="color-interpolation-filters:sRGB"
       id="filter4660"
       x="-0.039718311"
       width="1.0794365"
       y="-0.12260869"
       height="1.2452174"><feGaussianBlur
         inkscape:collect="always"
         stdDeviation="780.65862"
         id="feGaussianBlur4662" /></filter><clipPath
       clipPathUnits="userSpaceOnUse"
       id="clipPath4733"><rect
         style="color:#000000;clip-rule:nonzero;display:inline;overflow:visible;visibility:visible;opacity:1;isolation:auto;mix-blend-mode:normal;color-interpolation:sRGB;color-interpolation-filters:linearRGB;solid-color:#000000;solid-opacity:1;fill:#ffffff;fill-opacity:1;fill-rule:nonzero;stroke:none;stroke-width:0.13;stroke-linecap:butt;stroke-linejoin:miter;stroke-miterlimit:4;stroke-dasharray:none;stroke-dashoffset:0;stroke-opacity:1;color-rendering:auto;image-rendering:auto;shape-rendering:auto;text-rendering:auto;enable-background:accumulate"
         id="rect4735"
         width="271823.16"
         height="103411"
         x="-117841.53"
         y="-21409.297" /></clipPath><clipPath
       clipPathUnits="userSpaceOnUse"
       id="clipPath4737"><rect
         style="color:#000000;clip-rule:nonzero;display:inline;overflow:visible;visibility:visible;opacity:1;isolation:auto;mix-blend-mode:normal;color-interpolation:sRGB;color-interpolation-filters:linearRGB;solid-color:#000000;solid-opacity:1;fill:#ffffff;fill-opacity:1;fill-rule:nonzero;stroke:none;stroke-width:0.13;stroke-linecap:butt;stroke-linejoin:miter;stroke-miterlimit:4;stroke-dasharray:none;stroke-dashoffset:0;stroke-opacity:1;color-rendering:auto;image-rendering:auto;shape-rendering:auto;text-rendering:auto;enable-background:accumulate"
         id="rect4739"
         width="178831.05"
         height="68033.562"
         x="13272.945"
         y="-77634.531"
         transform="matrix(0.70710676,0.7071068,-0.70710676,0.7071068,0,0)" /></clipPath><clipPath
       clipPathUnits="userSpaceOnUse"
       id="clipPath4741"><rect
         style="color:#000000;clip-rule:nonzero;display:inline;overflow:visible;visibility:visible;opacity:1;isolation:auto;mix-blend-mode:normal;color-interpolation:sRGB;color-interpolation-filters:linearRGB;solid-color:#000000;solid-opacity:1;fill:#ffffff;fill-opacity:1;fill-rule:nonzero;stroke:none;stroke-width:0.13;stroke-linecap:butt;stroke-linejoin:miter;stroke-miterlimit:4;stroke-dasharray:none;stroke-dashoffset:0;stroke-opacity:1;color-rendering:auto;image-rendering:auto;shape-rendering:auto;text-rendering:auto;enable-background:accumulate"
         id="rect4743"
         width="178831.05"
         height="68033.562"
         x="-44646.273"
         y="114776.02"
         transform="matrix(0.70710676,-0.7071068,0.70710676,0.7071068,0,0)" /></clipPath><clipPath
       clipPathUnits="userSpaceOnUse"
       id="clipPath4745"><rect
         style="color:#000000;clip-rule:nonzero;display:inline;overflow:visible;visibility:visible;opacity:1;isolation:auto;mix-blend-mode:normal;color-interpolation:sRGB;color-interpolation-filters:linearRGB;solid-color:#000000;solid-opacity:1;fill:#ffffff;fill-opacity:1;fill-rule:nonzero;stroke:none;stroke-width:0.13;stroke-linecap:butt;stroke-linejoin:miter;stroke-miterlimit:4;stroke-dasharray:none;stroke-dashoffset:0;stroke-opacity:1;color-rendering:auto;image-rendering:auto;shape-rendering:auto;text-rendering:auto;enable-background:accumulate"
         id="rect4747"
         width="177183.39"
         height="67406.734"
         x="-36109.105"
         y="43230.465"
         transform="matrix(0.6745979,0.73818539,-0.6745979,0.73818539,0,0)" /></clipPath><clipPath
       clipPathUnits="userSpaceOnUse"
       id="clipPath4749"><rect
         style="color:#000000;clip-rule:nonzero;display:inline;overflow:visible;visibility:visible;opacity:1;isolation:auto;mix-blend-mode:normal;color-interpolation:sRGB;color-interpolation-filters:linearRGB;solid-color:#000000;solid-opacity:1;fill:#ffffff;fill-opacity:1;fill-rule:nonzero;stroke:none;stroke-width:0.13;stroke-linecap:butt;stroke-linejoin:miter;stroke-miterlimit:4;stroke-dasharray:none;stroke-dashoffset:0;stroke-opacity:1;color-rendering:auto;image-rendering:auto;shape-rendering:auto;text-rendering:auto;enable-background:accumulate"
         id="rect4751"
         width="178831.05"
         height="68033.562"
         x="79009.203"
         y="-138992.45"
         transform="matrix(0.70710676,0.7071068,-0.70710676,0.7071068,0,0)" /></clipPath><clipPath
       clipPathUnits="userSpaceOnUse"
       id="clipPath4753"><rect
         style="color:#000000;clip-rule:nonzero;display:inline;overflow:visible;visibility:visible;opacity:1;isolation:auto;mix-blend-mode:normal;color-interpolation:sRGB;color-interpolation-filters:linearRGB;solid-color:#000000;solid-opacity:1;fill:#ffffff;fill-opacity:1;fill-rule:nonzero;stroke:none;stroke-width:0.13;stroke-linecap:butt;stroke-linejoin:miter;stroke-miterlimit:4;stroke-dasharray:none;stroke-dashoffset:0;stroke-opacity:1;color-rendering:auto;image-rendering:auto;shape-rendering:auto;text-rendering:auto;enable-background:accumulate"
         id="rect4755"
         width="178831.05"
         height="68033.562"
         x="-11287.143"
         y="78697.445"
         transform="matrix(0.70710676,-0.7071068,0.70710676,0.7071068,0,0)" /></clipPath><clipPath
       clipPathUnits="userSpaceOnUse"
       id="clipPath4757"><rect
         style="color:#000000;clip-rule:nonzero;display:inline;overflow:visible;visibility:visible;opacity:1;isolation:auto;mix-blend-mode:normal;color-interpolation:sRGB;color-interpolation-filters:linearRGB;solid-color:#000000;solid-opacity:1;fill:#ffffff;fill-opacity:1;fill-rule:nonzero;stroke:none;stroke-width:0.13;stroke-linecap:butt;stroke-linejoin:miter;stroke-miterlimit:4;stroke-dasharray:none;stroke-dashoffset:0;stroke-opacity:1;color-rendering:auto;image-rendering:auto;shape-rendering:auto;text-rendering:auto;enable-background:accumulate"
         id="rect4759"
         width="178831.05"
         height="68033.562"
         x="-0.88436818"
         y="0.0041397982" /></clipPath><clipPath
       clipPathUnits="userSpaceOnUse"
       id="clipPath4377"><rect
         ry="0"
         y="8105.564"
         x="-0.88436818"
         height="26575.607"
         width="178831.03"
         id="rect4379"
         style="color:#000000;clip-rule:nonzero;display:inline;overflow:visible;visibility:visible;opacity:1;isolation:auto;mix-blend-mode:normal;color-interpolation:sRGB;color-interpolation-filters:linearRGB;solid-color:#000000;solid-opacity:1;fill:#ffffff;fill-opacity:1;fill-rule:nonzero;stroke:none;stroke-width:6.49800014;stroke-linecap:butt;stroke-linejoin:miter;stroke-miterlimit:4;stroke-dasharray:none;stroke-dashoffset:0;stroke-opacity:1;color-rendering:auto;image-rendering:auto;shape-rendering:auto;text-rendering:auto;enable-background:accumulate" /></clipPath><filter
       inkscape:collect="always"
       style="color-interpolation-filters:sRGB"
       id="filter5650"
       x="-0.12000004"
       width="1.2400001"
       y="-0.11999996"
       height="1.2399999"><feGaussianBlur
         inkscape:collect="always"
         stdDeviation="996.58511"
         id="feGaussianBlur5652" /></filter></defs><g
     id="g5597"
     transform="translate(-0.0158677,-8105.5639)"
     clip-path="url(#clipPath4377)"
     inkscape:export-xdpi="90"
     inkscape:export-ydpi="90"><g
       id="g4359"><rect
         style="color:#000000;clip-rule:nonzero;display:inline;overflow:visible;visibility:visible;opacity:1;isolation:auto;mix-blend-mode:normal;color-interpolation:sRGB;color-interpolation-filters:linearRGB;solid-color:#000000;solid-opacity:1;fill:#33b5e7;fill-opacity:1;fill-rule:nonzero;stroke:none;stroke-width:0.13;stroke-linecap:butt;stroke-linejoin:miter;stroke-miterlimit:4;stroke-dasharray:none;stroke-dashoffset:0;stroke-opacity:1;color-rendering:auto;image-rendering:auto;shape-rendering:auto;text-rendering:auto;enable-background:accumulate"
         id="rect4154-3"
         width="178831.09"
         height="68033.57"
         x="-0.90780568"
         y="0.00023354823"
         clip-path="url(#clipPath4757)"
         inkscape:export-xdpi="90"
         inkscape:export-ydpi="90" /><g
         id="g4588"
         transform="matrix(0.70710678,0.70710682,-0.70710674,0.70710678,11286.258,-78697.441)"
         clip-path="url(#clipPath4753)"
         inkscape:export-xdpi="90"
         inkscape:export-ydpi="90"><rect
           y="-63126.074"
           x="141083.25"
           height="25911.223"
           width="48500.492"
           id="rect4540"
           style="color:#000000;clip-rule:nonzero;display:inline;overflow:visible;visibility:visible;opacity:0.5;isolation:auto;mix-blend-mode:normal;color-interpolation:sRGB;color-interpolation-filters:linearRGB;solid-color:#000000;solid-opacity:1;fill:#151515;fill-opacity:1;fill-rule:nonzero;stroke:none;stroke-width:0.13;stroke-linecap:butt;stroke-linejoin:miter;stroke-miterlimit:4;stroke-dasharray:none;stroke-dashoffset:0;stroke-opacity:1;filter:url(#filter4584);color-rendering:auto;image-rendering:auto;shape-rendering:auto;text-rendering:auto;enable-background:accumulate" /><rect
           y="-62793.879"
           x="141415.44"
           height="25246.832"
           width="47836.102"
           id="rect4540-3"
           style="color:#000000;clip-rule:nonzero;display:inline;overflow:visible;visibility:visible;opacity:1;isolation:auto;mix-blend-mode:normal;color-interpolation:sRGB;color-interpolation-filters:linearRGB;solid-color:#000000;solid-opacity:1;fill:#9a32cd;fill-opacity:1;fill-rule:nonzero;stroke:none;stroke-width:0.13;stroke-linecap:butt;stroke-linejoin:miter;stroke-miterlimit:4;stroke-dasharray:none;stroke-dashoffset:0;stroke-opacity:1;color-rendering:auto;image-rendering:auto;shape-rendering:auto;text-rendering:auto;enable-background:accumulate" /></g><g
         id="g4641"
         transform="matrix(0.70710678,-0.70710682,0.70710674,0.70710678,-79010.089,138992.46)"
         clip-path="url(#clipPath4749)"
         inkscape:export-xdpi="90"
         inkscape:export-ydpi="90"><rect
           y="83181.672"
           x="182429.28"
           height="50493.664"
           width="73747.32"
           id="rect4544"
           style="color:#000000;clip-rule:nonzero;display:inline;overflow:visible;visibility:visible;opacity:0.5;isolation:auto;mix-blend-mode:normal;color-interpolation:sRGB;color-interpolation-filters:linearRGB;solid-color:#000000;solid-opacity:1;fill:#151515;fill-opacity:1;fill-rule:nonzero;stroke:none;stroke-width:0.13;stroke-linecap:butt;stroke-linejoin:miter;stroke-miterlimit:4;stroke-dasharray:none;stroke-dashoffset:0;stroke-opacity:1;filter:url(#filter4637);color-rendering:auto;image-rendering:auto;shape-rendering:auto;text-rendering:auto;enable-background:accumulate" /><rect
           transform="matrix(0,-1,1,0,0,0)"
           y="182761.47"
           x="-133343.14"
           height="73082.93"
           width="49829.277"
           id="rect4544-5"
           style="color:#000000;clip-rule:nonzero;display:inline;overflow:visible;visibility:visible;opacity:1;isolation:auto;mix-blend-mode:normal;color-interpolation:sRGB;color-interpolation-filters:linearRGB;solid-color:#000000;solid-opacity:1;fill:#99cd00;fill-opacity:1;fill-rule:nonzero;stroke:none;stroke-width:0.13;stroke-linecap:butt;stroke-linejoin:miter;stroke-miterlimit:4;stroke-dasharray:none;stroke-dashoffset:0;stroke-opacity:1;color-rendering:auto;image-rendering:auto;shape-rendering:auto;text-rendering:auto;enable-background:accumulate" /></g><g
         id="g4511"
         transform="matrix(0.74807464,-0.74807469,0.68363529,0.68363533,36444.007,-43632.471)"
         clip-path="url(#clipPath4745)"
         inkscape:export-xdpi="90"
         inkscape:export-ydpi="90"><rect
           y="22884.748"
           x="-85197.469"
           height="27240.004"
           width="63781.469"
           id="rect4486-6"
           style="color:#000000;clip-rule:nonzero;display:inline;overflow:visible;visibility:visible;opacity:0.4;isolation:auto;mix-blend-mode:normal;color-interpolation:sRGB;color-interpolation-filters:linearRGB;solid-color:#000000;solid-opacity:1;fill:#151515;fill-opacity:1;fill-rule:nonzero;stroke:none;stroke-width:0.13;stroke-linecap:butt;stroke-linejoin:miter;stroke-miterlimit:4;stroke-dasharray:none;stroke-dashoffset:0;stroke-opacity:1;filter:url(#filter4507);color-rendering:auto;image-rendering:auto;shape-rendering:auto;text-rendering:auto;enable-background:accumulate" /><rect
           y="23216.943"
           x="-84865.273"
           height="26575.613"
           width="63117.078"
           id="rect4486"
           style="color:#000000;clip-rule:nonzero;display:inline;overflow:visible;visibility:visible;opacity:1;isolation:auto;mix-blend-mode:normal;color-interpolation:sRGB;color-interpolation-filters:linearRGB;solid-color:#000000;solid-opacity:1;fill:#ffbc33;fill-opacity:1;fill-rule:nonzero;stroke:none;stroke-width:0.13;stroke-linecap:butt;stroke-linejoin:miter;stroke-miterlimit:4;stroke-dasharray:none;stroke-dashoffset:0;stroke-opacity:1;color-rendering:auto;image-rendering:auto;shape-rendering:auto;text-rendering:auto;enable-background:accumulate" /></g><g
         id="g4664"
         transform="matrix(0.70710678,0.70710682,-0.70710674,0.70710678,44645.388,-114776.02)"
         clip-path="url(#clipPath4741)"
         inkscape:export-xdpi="90"
         inkscape:export-ydpi="90"><rect
           y="39332.309"
           x="174601.09"
           height="15280.978"
           width="47171.711"
           id="rect4542"
           style="color:#000000;clip-rule:nonzero;display:inline;overflow:visible;visibility:visible;opacity:0.5;isolation:auto;mix-blend-mode:normal;color-interpolation:sRGB;color-interpolation-filters:linearRGB;solid-color:#000000;solid-opacity:1;fill:#151515;fill-opacity:1;fill-rule:nonzero;stroke:none;stroke-width:0.13;stroke-linecap:butt;stroke-linejoin:miter;stroke-miterlimit:4;stroke-dasharray:none;stroke-dashoffset:0;stroke-opacity:1;filter:url(#filter4660);color-rendering:auto;image-rendering:auto;shape-rendering:auto;text-rendering:auto;enable-background:accumulate" /><rect
           y="39664.504"
           x="174933.28"
           height="14616.588"
           width="46507.32"
           id="rect4542-9"
           style="color:#000000;clip-rule:nonzero;display:inline;overflow:visible;visibility:visible;opacity:1;isolation:auto;mix-blend-mode:normal;color-interpolation:sRGB;color-interpolation-filters:linearRGB;solid-color:#000000;solid-opacity:1;fill:#eeeef0;fill-opacity:1;fill-rule:nonzero;stroke:none;stroke-width:0.13;stroke-linecap:butt;stroke-linejoin:miter;stroke-miterlimit:4;stroke-dasharray:none;stroke-dashoffset:0;stroke-opacity:1;color-rendering:auto;image-rendering:auto;shape-rendering:auto;text-rendering:auto;enable-background:accumulate" /></g><g
         id="g4536"
         transform="matrix(0.70710678,-0.70710682,0.70710674,0.70710678,-13273.829,77634.535)"
         clip-path="url(#clipPath4737)"
         inkscape:export-xdpi="90"
         inkscape:export-ydpi="90"><rect
           y="-13192.214"
           x="12531.434"
           height="94418"
           width="153766.42"
           id="rect4515-7"
           style="color:#000000;clip-rule:nonzero;display:inline;overflow:visible;visibility:visible;opacity:0.5;isolation:auto;mix-blend-mode:normal;color-interpolation:sRGB;color-interpolation-filters:linearRGB;solid-color:#000000;solid-opacity:1;fill:#151515;fill-opacity:1;fill-rule:nonzero;stroke:none;stroke-width:0.13;stroke-linecap:butt;stroke-linejoin:miter;stroke-miterlimit:4;stroke-dasharray:none;stroke-dashoffset:0;stroke-opacity:1;filter:url(#filter4532);color-rendering:auto;image-rendering:auto;shape-rendering:auto;text-rendering:auto;enable-background:accumulate" /><rect
           y="-12988.242"
           x="12863.607"
           height="94010.055"
           width="153102.06"
           id="rect4515"
           style="color:#000000;clip-rule:nonzero;display:inline;overflow:visible;visibility:visible;opacity:1;isolation:auto;mix-blend-mode:normal;color-interpolation:sRGB;color-interpolation-filters:linearRGB;solid-color:#000000;solid-opacity:1;fill:#aa68cc;fill-opacity:1;fill-rule:nonzero;stroke:none;stroke-width:0.13;stroke-linecap:butt;stroke-linejoin:miter;stroke-miterlimit:4;stroke-dasharray:none;stroke-dashoffset:0;stroke-opacity:1;color-rendering:auto;image-rendering:auto;shape-rendering:auto;text-rendering:auto;enable-background:accumulate" /></g></g></g><g
     id="g4468"
     inkscape:export-xdpi="90"
     inkscape:export-ydpi="90"><g
       id="g4459"><path
         inkscape:connector-curvature="0"
         id="path5701"
         style="font-style:normal;font-variant:normal;font-weight:normal;font-stretch:normal;font-size:medium;line-height:125%;font-family:'OCR A Extended';-inkscape-font-specification:'OCR A Extended';letter-spacing:0px;word-spacing:0px;clip-rule:evenodd;fill:#ffffff;fill-opacity:1;fill-rule:evenodd;stroke:none;stroke-width:1px;stroke-linecap:butt;stroke-linejoin:miter;stroke-opacity:1;image-rendering:optimizeQuality;shape-rendering:geometricPrecision;text-rendering:geometricPrecision"
         d="m 53175.454,15854.321 1708.88,-5744.052 q 100.52,-314.947 422.2,-314.947 311.61,0 392.03,264.957 l 1683.75,5834.035 q 20.11,64.99 20.11,124.979 0,174.972 -120.64,299.951 -120.62,119.981 -276.44,119.981 -331.71,0 -422.18,-304.95 l -341.78,-1139.811 -1925,0 -371.93,1219.797 q -15.08,79.988 -125.66,154.975 -110.58,69.989 -241.25,69.989 -185.97,0 -306.59,-124.979 -120.63,-124.98 -120.63,-304.95 0,-74.989 25.13,-154.975 z m 2121.02,-4114.32 -723.76,2404.603 1422.39,0 -698.63,-2404.603 z" /><path
         inkscape:connector-curvature="0"
         id="path5703"
         style="font-style:normal;font-variant:normal;font-weight:normal;font-stretch:normal;font-size:medium;line-height:125%;font-family:'OCR A Extended';-inkscape-font-specification:'OCR A Extended';letter-spacing:0px;word-spacing:0px;clip-rule:evenodd;fill:#ffffff;fill-opacity:1;fill-rule:evenodd;stroke:none;stroke-width:1px;stroke-linecap:butt;stroke-linejoin:miter;stroke-opacity:1;image-rendering:optimizeQuality;shape-rendering:geometricPrecision;text-rendering:geometricPrecision"
         d="m 58465.444,16019.293 0,-6223.971 2981.99,0 q 517.08,0 888.58,374.938 376.51,374.938 376.51,894.853 l 0,479.92 q 0,524.913 -371.5,899.852 -371.5,369.938 -893.59,369.938 l -537.16,0 1726.95,2949.513 q 80.31,129.978 80.31,259.958 0,169.971 -130.52,294.95 -130.52,119.981 -296.19,119.981 -251,0 -381.54,-224.964 l -1982.96,-3399.438 -607.46,0 0,3204.47 q 0,174.972 -130.51,299.951 -125.51,119.981 -301.21,119.981 -175.71,0 -301.21,-119.981 -120.49,-124.979 -120.49,-299.951 z m 843.39,-4044.331 2138.6,0 q 175.71,0 296.19,-119.98 125.51,-124.98 125.51,-299.95 l 0,-489.919 q 0,-174.972 -125.51,-294.952 -120.48,-124.978 -296.19,-124.978 l -2138.6,0 0,1329.779 z" /><path
         inkscape:connector-curvature="0"
         id="path5705"
         style="font-style:normal;font-variant:normal;font-weight:normal;font-stretch:normal;font-size:medium;line-height:125%;font-family:'OCR A Extended';-inkscape-font-specification:'OCR A Extended';letter-spacing:0px;word-spacing:0px;clip-rule:evenodd;fill:#ffffff;fill-opacity:1;fill-rule:evenodd;stroke:none;stroke-width:1px;stroke-linecap:butt;stroke-linejoin:miter;stroke-opacity:1;image-rendering:optimizeQuality;shape-rendering:geometricPrecision;text-rendering:geometricPrecision"
         d="m 63780.564,10778.383 0,-1136.523 4252.1,0 0,1146.536 q 0,175.235 -125.35,300.402 -125.37,120.161 -295.86,120.161 -175.48,0 -305.86,-125.167 -125.35,-125.168 -125.35,-295.396 l 0,-305.409 -852.44,0 0,5382.211 q 0,175.237 -125.35,300.404 -125.35,120.161 -295.84,120.161 -180.52,0 -305.88,-120.161 -125.35,-125.167 -125.35,-300.404 l 0,-5382.211 -852.43,0 0,295.396 q 0,175.235 -125.34,300.402 -120.36,120.161 -295.86,120.161 -175.49,0 -300.84,-120.161 -120.35,-125.167 -120.35,-300.402 z" /><path
         inkscape:connector-curvature="0"
         id="path5707"
         style="font-style:normal;font-variant:normal;font-weight:normal;font-stretch:normal;font-size:medium;line-height:125%;font-family:'OCR A Extended';-inkscape-font-specification:'OCR A Extended';letter-spacing:0px;word-spacing:0px;clip-rule:evenodd;fill:#ffffff;fill-opacity:1;fill-rule:evenodd;stroke:none;stroke-width:1px;stroke-linecap:butt;stroke-linejoin:miter;stroke-opacity:1;image-rendering:optimizeQuality;shape-rendering:geometricPrecision;text-rendering:geometricPrecision"
         d="m 76962.064,12394.893 0,2794.538 245.12,409.932 350.17,0 255.13,-419.93 0,-4954.182 q 0,-174.972 125.06,-299.951 130.06,-129.978 305.15,-129.978 170.08,0 295.15,124.98 125.06,124.979 125.06,294.95 l 0,5099.158 q 0,94.984 -105.05,264.957 l -390.2,644.892 q -120.06,214.966 -365.18,214.966 l -790.39,0 q -375.18,0 -480.23,-339.944 -115.06,339.944 -460.23,339.944 l -740.37,0 q -320.15,0 -460.22,-234.961 l -360.18,-604.901 q -100.05,-164.972 -100.05,-284.953 l 0,-5089.159 q 0,-174.972 125.06,-299.951 130.08,-129.978 305.16,-129.978 165.07,0 285.13,129.978 125.06,124.979 125.06,299.951 l 0,4974.179 245.13,399.933 360.17,0 265.13,-419.93 0,-2784.54 q 0,-174.971 120.06,-294.952 125.06,-124.979 300.15,-124.979 175.09,0 295.15,124.979 125.06,119.981 125.06,294.952 z" /><path
         style="font-style:normal;font-variant:normal;font-weight:normal;font-stretch:normal;font-size:medium;line-height:125%;font-family:'OCR A Extended';-inkscape-font-specification:'OCR A Extended';letter-spacing:0px;word-spacing:0px;clip-rule:evenodd;fill:#ffffff;fill-opacity:1;fill-rule:evenodd;stroke:none;stroke-width:1px;stroke-linecap:butt;stroke-linejoin:miter;stroke-opacity:1;image-rendering:optimizeQuality;shape-rendering:geometricPrecision;text-rendering:geometricPrecision"
         d="m 81851.974,9795.322 c -461.31,0 -797.27,204.959 -1007.87,614.888 l -932.62,1884.79 c -123.68,246.623 -185.56,524.794 -185.56,834.74 0,309.946 61.88,586.645 185.56,829.936 l 932.62,1864.661 c 90.25,176.636 223.92,323.319 401.1,439.966 180.51,116.647 382.8,174.922 606.77,174.922 471.34,0 805.59,-204.959 1002.82,-614.888 l 927.68,-1864.661 c 130.37,-259.955 195.55,-536.654 195.55,-829.936 0,-299.947 -65.18,-578.119 -195.55,-834.74 l -927.68,-1884.79 c -200.58,-409.929 -534.82,-614.888 -1002.82,-614.888 z m 0,839.935 c 120.34,0 208.93,64.943 265.76,194.92 l 882.52,1769.734 c 83.57,163.305 125.35,336.528 125.35,519.83 0,173.303 -41.78,348.388 -125.35,525.024 l -902.64,1789.602 c -56.82,109.98 -138.67,165.052 -245.64,165.052 -123.68,0 -208.96,-55.072 -255.76,-165.052 l -897.58,-1789.602 c -80.23,-166.637 -120.29,-341.723 -120.29,-525.024 0,-169.97 40.06,-343.194 120.29,-519.83 l 872.53,-1769.734 c 66.86,-129.977 160.47,-194.92 280.81,-194.92 z"
         id="path5709"
         inkscape:connector-curvature="0" /><path
         inkscape:connector-curvature="0"
         id="path5711"
         style="font-style:normal;font-variant:normal;font-weight:normal;font-stretch:normal;font-size:medium;line-height:125%;font-family:'OCR A Extended';-inkscape-font-specification:'OCR A Extended';letter-spacing:0px;word-spacing:0px;clip-rule:evenodd;fill:#ffffff;fill-opacity:1;fill-rule:evenodd;stroke:none;stroke-width:1px;stroke-linecap:butt;stroke-linejoin:miter;stroke-opacity:1;image-rendering:optimizeQuality;shape-rendering:geometricPrecision;text-rendering:geometricPrecision"
         d="m 85041.044,16019.293 0,-6223.971 2982,0 q 517.07,0 888.57,374.938 376.51,374.938 376.51,894.853 l 0,479.92 q 0,524.913 -371.49,899.852 -371.5,369.938 -893.59,369.938 l -537.16,0 1726.94,2949.513 q 80.32,129.978 80.32,259.958 0,169.971 -130.52,294.95 -130.53,119.981 -296.19,119.981 -251.01,0 -381.54,-224.964 l -1982.97,-3399.438 -607.44,0 0,3204.47 q 0,174.972 -130.53,299.951 -125.5,119.981 -301.21,119.981 -175.71,0 -301.21,-119.981 -120.49,-124.979 -120.49,-299.951 z m 843.4,-4044.331 2138.6,0 q 175.7,0 296.19,-119.98 125.5,-124.98 125.5,-299.95 l 0,-489.919 q 0,-174.972 -125.5,-294.952 -120.49,-124.978 -296.19,-124.978 l -2138.6,0 0,1329.779 z" /><path
         inkscape:connector-curvature="0"
         id="path5713"
         style="font-style:normal;font-variant:normal;font-weight:normal;font-stretch:normal;font-size:medium;line-height:125%;font-family:'OCR A Extended';-inkscape-font-specification:'OCR A Extended';letter-spacing:0px;word-spacing:0px;clip-rule:evenodd;fill:#ffffff;fill-opacity:1;fill-rule:evenodd;stroke:none;stroke-width:1px;stroke-linecap:butt;stroke-linejoin:miter;stroke-opacity:1;image-rendering:optimizeQuality;shape-rendering:geometricPrecision;text-rendering:geometricPrecision"
         d="m 90356.164,16019.61 0,-5789.687 q 0,-179.835 119.77,-304.72 124.77,-124.886 299.45,-124.886 174.67,0 294.45,124.886 124.77,119.89 124.77,294.729 l 0,1983.18 2685.01,-2292.895 q 139.74,-114.895 314.41,-114.895 174.68,0 294.45,129.881 119.77,129.881 119.77,299.724 0,174.84 -134.73,289.735 l -3044.35,2587.625 3044.35,2632.585 q 124.76,104.902 124.76,269.752 0,164.848 -124.76,299.725 -119.78,134.876 -299.45,134.876 -169.68,0 -304.43,-114.895 l -2675.03,-2307.882 0,2003.162 q 0,174.839 -124.77,299.725 -119.78,119.89 -294.45,119.89 -169.7,0 -294.45,-119.89 -124.77,-124.886 -124.77,-299.725 z" /></g><g
       id="g4448"><g
         id="g4443"><rect
           ry="9965.8525"
           y="3321.9507"
           x="3321.0498"
           height="19931.705"
           width="19931.689"
           id="rect4193-3-6"
           style="color:#000000;clip-rule:nonzero;display:inline;overflow:visible;visibility:visible;opacity:0.6;isolation:auto;mix-blend-mode:normal;color-interpolation:sRGB;color-interpolation-filters:linearRGB;solid-color:#000000;solid-opacity:1;fill:#000000;fill-opacity:1;fill-rule:nonzero;stroke:none;stroke-width:0.13;stroke-linecap:butt;stroke-linejoin:miter;stroke-miterlimit:4;stroke-dasharray:none;stroke-dashoffset:0;stroke-opacity:1;filter:url(#filter5650);color-rendering:auto;image-rendering:auto;shape-rendering:auto;text-rendering:auto;enable-background:accumulate" /><rect
           ry="9965.8545"
           y="3321.9507"
           x="3321.0498"
           height="19931.709"
           width="19931.695"
           id="rect4193-3"
           style="color:#000000;clip-rule:nonzero;display:inline;overflow:visible;visibility:visible;opacity:1;isolation:auto;mix-blend-mode:normal;color-interpolation:sRGB;color-interpolation-filters:linearRGB;solid-color:#000000;solid-opacity:1;fill:#ffffff;fill-opacity:1;fill-rule:nonzero;stroke:none;stroke-width:0.13;stroke-linecap:butt;stroke-linejoin:miter;stroke-miterlimit:4;stroke-dasharray:none;stroke-dashoffset:0;stroke-opacity:1;color-rendering:auto;image-rendering:auto;shape-rendering:auto;text-rendering:auto;enable-background:accumulate" /><path
           inkscape:connector-curvature="0"
           id="polygon37-1-9"
           d="m 13863.604,15493.02 1740.629,-971.552 0,-2589.053 -2316.304,-1294.527 -2319.035,1294.527 0,2589.053 1743.345,971.552 0,2334.35 -3834.264,-2140.041 0,-4920.778 3834.264,-2140.038 0,-1394.307 -5083.376,2835.878 0,6317.712 5083.376,2835.882 0,1559.733 -6479.13,-3615.747 0,-7877.446 7054.82,-3936.096 7052.088,3936.096 0,7877.446 -6476.413,3615.747 0,-1559.733 5080.659,-2835.882 0,-6317.712 -5080.659,-2835.878 0,1394.307 3831.547,2140.038 0,4920.778 -3831.547,2140.041 z"
           style="clip-rule:evenodd;opacity:1;fill:none;fill-opacity:1;fill-rule:evenodd;stroke:#99cd00;stroke-width:361.78427124;stroke-linecap:butt;stroke-linejoin:miter;stroke-miterlimit:4;stroke-dasharray:none;stroke-opacity:1;image-rendering:optimizeQuality;shape-rendering:geometricPrecision;text-rendering:geometricPrecision" /></g><g
         id="g4437"><path
           inkscape:connector-curvature="0"
           id="path4547-3"
           style="font-weight:normal;font-size:5126.87060547px;font-family:'OCR-A BT';clip-rule:evenodd;opacity:1;fill:#ffffff;fill-opacity:1;fill-rule:evenodd;stroke:none;image-rendering:optimizeQuality;shape-rendering:geometricPrecision;text-rendering:geometricPrecision"
           d="m 27437.167,10656.477 0,1311.758 2085.94,0 q 175.495,0 300.85,-135.181 130.375,-135.182 130.375,-305.409 l 0,-440.591 q 0,-170.229 -130.375,-300.403 -130.366,-130.174 -300.85,-130.174 l -2085.94,0 z m -862.45,-861.155 2948.39,0 q 531.506,0 917.611,380.511 386.097,380.511 386.097,911.221 l 0,440.591 q 0,535.717 -381.085,921.233 -381.085,380.511 -922.623,380.511 l -461.32,0 1679.781,2923.916 q 45.129,75.102 65.184,135.181 20.063,60.082 20.063,110.15 0,180.241 -125.355,305.408 -125.364,125.168 -305.871,125.168 -125.363,0 -230.655,-65.087 -105.301,-65.087 -170.493,-180.243 l -1940.514,-3354.493 -616.76,0 0,3129.192 q 0,215.289 -120.343,345.463 -120.335,135.181 -310.883,135.181 -190.537,0 -310.88,-135.181 -120.344,-135.182 -120.344,-345.463 l 0,-6163.259 z" /><path
           inkscape:connector-curvature="0"
           id="path4557-5"
           style="font-weight:normal;font-size:5126.87060547px;font-family:'OCR-A BT';clip-rule:evenodd;opacity:1;fill:#ffffff;fill-opacity:1;fill-rule:evenodd;stroke:none;image-rendering:optimizeQuality;shape-rendering:geometricPrecision;text-rendering:geometricPrecision"
           d="m 32852.584,9795.322 2126.049,0 q 466.323,0 812.309,340.457 351,335.45 351,766.026 0,215.29 -120.344,350.47 -120.343,130.174 -310.882,130.174 -185.526,0 -285.816,-95.126 -100.289,-100.134 -165.471,-415.557 -15.035,-80.109 -100.29,-145.196 -85.237,-70.093 -180.506,-70.093 l -2126.049,0 q -35.106,0 -70.203,35.046 -30.086,30.042 -30.086,65.088 0,15.02 5.01,35.046 10.023,15.022 25.075,40.055 l 3093.808,3965.312 q 135.378,180.242 200.561,345.463 65.183,165.222 65.183,335.45 0,395.529 -285.807,675.905 -280.805,285.383 -681.944,285.383 l -2126.049,0 q -461.311,0 -812.311,-340.457 -345.987,-340.456 -345.987,-766.026 0,-215.287 120.344,-345.462 120.344,-135.182 310.881,-135.182 180.525,0 280.796,100.136 100.289,95.125 170.493,410.549 15.052,80.107 100.288,150.202 85.247,65.087 175.496,65.087 l 2126.049,0 q 45.129,0 75.223,-30.041 30.077,-30.041 30.077,-70.094 0,-15.021 -10.023,-30.041 -5.009,-20.026 -20.054,-45.059 l -3093.817,-3965.314 q -135.378,-180.241 -200.561,-345.461 -65.183,-165.222 -65.183,-335.451 0,-395.53 280.796,-675.906 285.816,-285.383 681.943,-285.383 z" /><text
           transform="scale(1.0046339,0.99538749)"
           sodipodi:linespacing="125%"
           id="text5746"
           y="16510.387"
           x="41185.598"
           style="font-style:normal;font-variant:normal;font-weight:normal;font-stretch:normal;font-size:10270.29589844px;line-height:125%;font-family:'OCR A Extended';-inkscape-font-specification:'OCR A Extended';letter-spacing:0px;word-spacing:0px;clip-rule:evenodd;fill:#ffffff;fill-opacity:1;fill-rule:evenodd;stroke:none;stroke-width:1px;stroke-linecap:butt;stroke-linejoin:miter;stroke-opacity:1;image-rendering:optimizeQuality;shape-rendering:geometricPrecision;text-rendering:geometricPrecision"
           xml:space="preserve"><tspan
             y="16510.387"
             x="41185.598"
             id="tspan5748"
             sodipodi:role="line">/</tspan></text>
</g></g></g></svg>